3100 0 2 0           
20 CST MICROWAVE STUDIO 14 ACIS 31.0.1 NT 24 Mon Mar 27 16:43:42 2023 
1 9.9999999999999995e-07 1e-10 
T @77 WXGCU9Y4J4VS2WU6GGTDRS4RE9S48HP3SCUBRA57K8RVP6NDQCRUKG6CKAMVPA5BQAUUQJQ5FAQCG 
name_attrib-gen-attrib $-1 -1 $-1 $-1 $-1 2 1 1 1 1 1 1 1 1 1 1 1 1 1 1 1 1 1 @17 VirtualBackground #
body $2 -1 -1 $-1 0 $3 $-1 $-1 F #
rgb_color-st-attrib $-1 -1 $4 $-1 $1 2 1 2 1 1 1 1 1 1 1 1 1 1 1 0 1 1 1 0.80000001192092896 0.80000001192092896 0.80000001192092896 #
lump $-1 -1 -1 $-1 $-1 $5 $1 F #
name_attrib-gen-attrib $-1 -1 $6 $2 $1 2 1 1 1 1 1 1 1 1 1 1 1 1 1 0 1 1 1 @27 c0.800000 0.800000 0.800000 #
shell $-1 -1 -1 $-1 $-1 $-1 $7 $-1 $3 F #
integer_attrib-name_attrib-gen-attrib $-1 -1 $8 $4 $1 2 1 1 1 1 1 1 1 1 1 1 1 1 1 0 1 1 1 @4 type 6 #
face $9 -1 -1 $-1 $10 $11 $5 $-1 $12 reversed double out F F #
name_attrib-gen-attrib $-1 -1 $13 $6 $1 2 1 1 1 1 1 1 1 1 1 1 1 1 1 0 1 1 1 @4 mPEC #
name_attrib-gen-attrib $-1 -1 $14 $-1 $7 0 0 0 0 1 1 1 1 1 1 1 0 1 0 0 1 0 1 @4 bbox #
face $15 -1 -1 $-1 $16 $17 $5 $-1 $18 reversed double out T -9.3740744250904946 274.44242834735189 2.4974745307366142 9.3740744250904839 288.82664619142179 25.076173818689149 F #
loop $-1 -1 -1 $-1 $-1 $19 $7 F unknown #
cone-surface $-1 -1 -1 $-1 66.193471022451916 282.16732309571086 29.997474530736625 1 -1.224646799147353e-16 1.224646799147353e-16 1.1216935711518778e-15 9.1593230957108993 1.3736784415353107e-31 1 I I -0 1 9.1593230957108993 reversed I I I I #
name_attrib-gen-attrib $-1 -1 $20 $8 $1 2 1 1 1 1 1 1 1 1 1 1 1 1 1 0 1 1 1 @37 nSelf-Grounded Bow-Tie/Antenna:Copper #
integer_attrib-name_attrib-gen-attrib $-1 -1 $21 $9 $7 2 0 0 1 1 1 1 1 1 1 1 1 1 1 0 1 1 1 @3 fif 0 #
name_attrib-gen-attrib $-1 -1 $22 $-1 $10 0 0 0 0 1 1 1 1 1 1 1 0 1 0 0 1 0 1 @4 bbox #
face $23 -1 -1 $-1 $24 $25 $5 $-1 $26 forward double out T -20 291.32664619142179 -30.002525469263386 20.000000000000007 291.32664619142179 29.997474530736621 F #
loop $-1 -1 -1 $-1 $-1 $27 $10 T -9.3740744250904946 274.44242834735189 2.4974745307366142 9.3740744250904839 288.82664619142179 25.076173818689149 unknown #
plane-surface $-1 -1 -1 $-1 -2.5319285037334025e-15 280.06712075601143 16.247175269094079 2.5118100255548314e-16 -0.84339144581288572 -0.53729960834682389 -1 1.224646799147353e-16 -6.5971882447563175e-16 reverse_v I I I I #
coedge $-1 -1 -1 $-1 $28 $29 $-1 $30 reversed $11 $-1 #
name_attrib-gen-attrib $-1 -1 $31 $13 $1 2 1 1 1 1 1 1 1 1 1 1 1 1 1 0 1 1 1 @17 abody_is_no_solid #
integer_attrib-name_attrib-gen-attrib $-1 -1 $-1 $14 $7 2 1 1 1 1 1 1 1 1 1 1 1 1 1 0 1 1 1 @3 pid 5 #
integer_attrib-name_attrib-gen-attrib $-1 -1 $32 $15 $10 2 0 0 1 1 1 1 1 1 1 1 1 1 1 0 1 1 1 @3 fif 0 #
name_attrib-gen-attrib $-1 -1 $33 $-1 $16 0 0 0 0 1 1 1 1 1 1 1 0 1 0 0 1 0 1 @4 bbox #
face $34 -1 -1 $-1 $35 $36 $5 $-1 $37 reversed double out F F #
loop $-1 -1 -1 $-1 $38 $39 $16 T -4.4999999999999973 291.32664619142179 -4.5025254692633823 4.5000000000000027 291.32664619142179 4.4974745307366177 unknown #
plane-surface $-1 -1 -1 $-1 -38.231220365622271 291.32664619142179 -0.0025254692633887078 -1.224646799147353e-16 -1 -1.4997597826618571e-32 -1 1.224646799147353e-16 -1.8369701987210294e-16 forward_v I I I I #
coedge $-1 -1 -1 $-1 $40 $41 $-1 $42 reversed $17 $-1 #
coedge $-1 -1 -1 $-1 $43 $19 $44 $45 reversed $11 $-1 #
coedge $-1 -1 -1 $-1 $19 $43 $40 $46 reversed $11 $-1 #
edge $47 -1 -1 $-1 $48 0 $49 35.593442714028114 $19 $50 forward @7 unknown F #
real_attrib-name_attrib-gen-attrib $-1 -1 $51 $20 $1 0 0 0 0 1 1 1 1 1 1 1 0 1 0 0 1 0 1 @8 bboxzmax 39.156797626447521 #
integer_attrib-name_attrib-gen-attrib $-1 -1 $-1 $22 $10 2 1 1 1 1 1 1 1 1 1 1 1 1 1 0 1 1 1 @3 pid 6 #
integer_attrib-name_attrib-gen-attrib $-1 -1 $52 $23 $16 2 0 0 1 1 1 1 1 1 1 1 1 1 1 0 1 1 1 @3 fif 0 #
name_attrib-gen-attrib $-1 -1 $53 $-1 $24 0 0 0 0 1 1 1 1 1 1 1 0 1 0 0 1 0 1 @4 bbox #
face $54 -1 -1 $-1 $-1 $55 $5 $-1 $56 reversed double out T -9.3740744250904857 274.44242834735189 -25.081224757215914 9.374074425090491 288.82664619142179 -2.5025254692633783 F #
loop $-1 -1 -1 $-1 $-1 $57 $24 F unknown #
cone-surface $-1 -1 -1 $-1 66.193471022451916 282.16732309571086 -30.002525469263375 -1 1.224646799147353e-16 -1.224646799147353e-16 1.1216935711518778e-15 9.1593230957108993 1.3736784415353107e-31 1 I I 0 1 9.1593230957108993 forward I I I I #
loop $-1 -1 -1 $-1 $-1 $58 $16 T -20 291.32664619142179 -30.002525469263386 20.000000000000007 291.32664619142179 29.997474530736621 unknown #
coedge $-1 -1 -1 $-1 $39 $39 $-1 $59 forward $25 $-1 #
coedge $-1 -1 -1 $-1 $60 $27 $29 $46 forward $17 $-1 #
coedge $-1 -1 -1 $-1 $27 $60 $-1 $61 reversed $17 $-1 #
edge $62 -1 -1 $-1 $49 35.5934427140281 $63 63.643906293056531 $27 $64 forward @7 unknown T -9.3740744250904946 274.44242834735189 2.4974745307366142 -0.99999999999999778 288.82664619142179 25.076173818689149 #
coedge $-1 -1 -1 $-1 $29 $28 $-1 $65 reversed $11 $-1 #
coedge $-1 -1 -1 $-1 $66 $67 $28 $45 forward $38 $-1 #
edge $68 -1 -1 $-1 $69 -218.33350899478799 $48 -178.33350899478799 $44 $70 forward @7 tangent T -20 291.32664619142179 29.997474530736614 20 291.32664619142179 29.997474530736621 #
edge $71 -1 -1 $-1 $49 0 $72 18.748148850180954 $29 $73 forward @7 tangent T -9.3740744250904875 274.44242834735189 25.076173818689131 9.3740744250904804 274.44242834735189 25.076173818689139 #
name_attrib-gen-attrib $-1 -1 $74 $-1 $30 0 0 0 0 1 1 1 1 1 1 1 0 1 0 0 1 0 1 @4 bbox #
vertex $75 -1 -1 $-1 $76 $77 #
vertex $78 -1 -1 $-1 $30 $79 #
intcurve-curve $-1 -1 -1 $-1 forward { projcur 0 full nubs 5 open 7 
	0 5 3.3368852544401357 3 10.010655763320408 3 18.352868899420749 3 26.695082035521086 3 
	30.031967289961219 3 35.593442714028114 5 
	-20 291.32664619142179 29.997474530736614 
	-19.800763895457308 291.32664619142179 30.634418093940834 
	-19.601527790925598 291.27127950404929 31.271320781934243 
	-19.402291686400254 291.16050403886385 31.902039710938787 
	-18.804583372829381 290.66560625142216 33.754913924097949 
	-18.206875059232164 289.70228258253195 35.438114141101678 
	-17.80840285016891 288.86888250847221 36.436814038369221 
	-16.91184037978925 286.64359757261218 38.310389171729206 
	-16.015277909413548 283.8538441725056 39.215465433634698 
	-15.517187648083343 282.21611968636091 39.368416688091813 
	-14.521007125437901 278.98330911579728 38.953755294156281 
	-13.524826602794086 276.21421790300468 37.234703000681392 
	-13.026736341464279 275.04055962374355 36.082286043628677 
	-12.329409975608199 273.80202974990226 34.166656336646959 
	-11.63208360975451 273.19816720224031 32.012158622076129 
	-11.432847505224856 273.07966903842129 31.382837252796531 
	-10.901551226478276 272.91122985567796 29.686437738281228 
	-10.370254947728109 273.13639011218936 27.985253326582427 
	-10.038194773518883 273.43134524942411 26.949495842321966 
	-9.7061345993309214 273.87204580228098 25.971495073126569 
	-9.3740744250904875 274.44242834735189 25.076173818689135 
	0.00025532398305152284 
	cone 66.193471022451916 282.16732309571086 29.997474530736625 1 -1.224646799147353e-16 1.224646799147353e-16 1.1216935711518778e-15 9.1593230957108993 1.3736784415353107e-31 1 I I -0 1 9.1593230957108993 reversed I I I I 
	null_surface 
	nubs 5 open 12 
	0 5 3.3368852544401357 3 6.6737705088802715 2 10.010655763320408 3 13.347541017760543 3 
	16.684426272200678 3 20.021311526640815 3 23.358196781080952 3 26.695082035521086 3 30.031967289961219 3 
	33.368852544401356 2 35.593442714028114 5 
	9.4104629918355371 0 
	9.3887107179545133 0.069540462384440394 
	9.3669584440746885 0.13907646207983884 
	9.3452061701955564 0.20863847815693015 
	9.3017016224376725 0.34770442523187939 
	9.2581970746785096 0.48677483488936524 
	9.2146925269189879 0.62590350718556764 
	9.1711879791592956 0.76491715244580805 
	9.1276834314003992 0.90404304979767347 
	9.0841788836414246 1.0431122039647729 
	9.0406743358825352 1.1821816831665473 
	9.0189220620030799 1.2517450910098509 
	8.9754175142440733 1.3908146003496107 
	8.9319129664847523 1.5298840600573795 
	8.9101606926050678 1.5994474322572727 
	8.8666561448457308 1.7385168999256897 
	8.8231515970866852 1.8775863706103624 
	8.8013993232071872 1.9471497473107353 
	8.7578947754481558 2.0862192123696977 
	8.7143902276888685 2.2252886791129689 
	8.6926379538091858 2.2948520559256305 
	8.6491334060497884 2.4339215248160406 
	8.6056288582904408 2.5729909927262695 
	8.5838765844107865 2.6425543692049547 
	8.5403720366515063 2.7816238364574715 
	8.4968674888923115 2.9206933040654284 
	8.4751152150127105 2.9902560701042251 
	8.431610667253441 3.1293224585922292 
	8.3881061194939512 3.2683860738854151 
	8.3518523296945268 3.3843244971656472 
	8.315598539895813 3.5001916650406364 
	8.2793447500981046 3.6161031161902932 
	8.2648432341782243 3.6624643522324818 
	8.2503417182574275 3.7088246604879505 
	
	nullbs 
	-1 
	-1 
	I I 
	0 
	0 
	7 3.3368852544401357 6.6737746674831584 10.010655763320408 13.347721213372106 26.695082035521086 30.031967289961219 33.368936002192655 
	
	-1 
	none F intcurve forward { exactcur 1 full nubs 3 open 12 
	0 3 3.3368852544401357 1 6.6737705088802715 1 10.010655763320408 1 13.347541017760543 1 
	16.684426272200678 1 20.021311526640815 1 23.358196781080952 1 26.695082035521086 1 30.031967289961219 1 
	33.368852544401356 1 35.593442714028114 3 
	-20 291.32664619142179 29.997474530736614 
	-19.667939825762186 291.32664619141752 31.05904713607698 
	-19.003819477359819 290.95377342931386 33.181919845349334 
	-18.007638954697832 289.34289050675494 35.985299106055827 
	-17.0114584320538 286.87321395246778 38.071953437436825 
	-16.015277909413648 283.84031717351712 39.192243373036639 
	-15.019097386759016 280.60719046394661 39.212063558437173 
	-14.022916864117601 277.56078625599031 38.12904804081527 
	-13.026736341464339 275.06570985982836 36.072814672040145 
	-12.030555818813291 273.4205814496014 33.289461643636123 
	-11.034375296166184 272.82229623612017 30.112111099650036 
	-10.148881498248251 273.28494486674879 27.275814507460531 
	-9.5954478745841207 274.06217331730721 25.673054654982408 
	-9.3740744250904875 274.44242834735189 25.076173818689135 
	0 
	null_surface 
	null_surface 
	nullbs 
	nullbs 
	-1 
	-1 
	I I 
	0 
	0 
	10 3.3368852544401357 6.6737705088802715 10.010655763320408 13.347541017760543 16.684426272200678 20.021311526640815 23.358196781080952 26.695082035521086 30.031967289961219 33.368852544401356 
	
	-1 
	none F F 1 F 0 } I I F 0 F 35.593442714028114 surf1 
	} F 0 F 35.593442714028114 #
real_attrib-name_attrib-gen-attrib $-1 -1 $80 $31 $1 0 0 0 0 1 1 1 1 1 1 1 0 1 0 0 1 0 1 @8 bboxzmin -39.161848564974285 #
integer_attrib-name_attrib-gen-attrib $-1 -1 $-1 $33 $16 2 1 1 1 1 1 1 1 1 1 1 1 1 1 0 1 1 1 @3 pid 7 #
integer_attrib-name_attrib-gen-attrib $-1 -1 $81 $34 $24 2 0 0 1 1 1 1 1 1 1 1 1 1 1 0 1 1 1 @3 fif 0 #
name_attrib-gen-attrib $-1 -1 $82 $-1 $35 0 0 0 0 1 1 1 1 1 1 1 0 1 0 0 1 0 1 @4 bbox #
loop $-1 -1 -1 $-1 $-1 $83 $35 T -9.3740744250904857 274.44242834735189 -25.081224757215914 9.374074425090491 288.82664619142179 -2.5025254692633783 unknown #
plane-surface $-1 -1 -1 $-1 1.4481002955329654e-15 280.06712075601143 -16.252226207620843 1.1958055344647032e-16 -0.84339144581288572 0.53729960834682389 -1 1.224646799147353e-16 4.147894646461612e-16 forward_v I I I I #
coedge $-1 -1 -1 $-1 $84 $85 $-1 $86 forward $36 $-1 #
coedge $-1 -1 -1 $-1 $67 $66 $85 $87 reversed $38 $-1 #
edge $88 -1 -1 $-1 $89 0 $89 6.2831853071795862 $39 $90 forward @7 unknown T -4.4999999999999973 291.32664619142179 -4.5025254692633823 4.5000000000000027 291.32664619142179 4.4974745307366177 #
coedge $-1 -1 -1 $-1 $41 $40 $-1 $91 reversed $17 $-1 #
edge $92 -1 -1 $-1 $63 0 $93 2 $41 $94 forward @7 unknown T -0.99999999999999778 288.82664619142179 2.4974745307366142 1.0000000000000022 288.82664619142179 2.4974745307366146 #
name_attrib-gen-attrib $-1 -1 $95 $-1 $42 0 0 0 0 1 1 1 1 1 1 1 0 1 0 0 1 0 1 @4 bbox #
vertex $96 -1 -1 $-1 $42 $97 #
straight-curve $-1 -1 -1 $-1 -20.000000000000007 256.1901869048333 53.726453961076736 0.29853604385174071 0.51279786530244853 -0.80493141314189109 I I #
edge $98 -1 -1 $-1 $72 28.050463579028431 $69 63.643906293056538 $43 $99 forward @7 unknown F #
coedge $-1 -1 -1 $-1 $58 $44 $-1 $76 forward $38 $100 #
coedge $-1 -1 -1 $-1 $44 $58 $-1 $101 forward $38 $102 #
name_attrib-gen-attrib $-1 -1 $103 $-1 $45 0 0 0 0 1 1 1 1 1 1 1 0 1 0 0 1 0 1 @4 bbox #
vertex $104 -1 -1 $-1 $45 $105 #
straight-curve $-1 -1 -1 $-1 -198.33350899478799 291.32664619142179 29.997474530736593 -1 1.224646799147353e-16 -1.224646799147353e-16 F -396.66701798957598 F -0 #
name_attrib-gen-attrib $-1 -1 $106 $-1 $46 0 0 0 0 1 1 1 1 1 1 1 0 1 0 0 1 0 1 @4 bbox #
vertex $107 -1 -1 $-1 $65 $108 #
straight-curve $-1 -1 -1 $-1 -9.3740744250904875 274.44242834735189 25.076173818689135 1 -1.224646799147353e-16 1.224646799147353e-16 F 0 F 18.748148850180954 #
name_attrib-gen-attrib $-1 -1 $109 $47 $30 2 1 1 1 1 1 1 1 1 1 1 1 1 1 0 1 1 1 @3 eif #
name_attrib-gen-attrib $-1 -1 $110 $-1 $48 0 0 0 0 1 1 1 1 1 1 1 0 1 0 0 1 0 1 @4 bbox #
edge $111 -1 -1 $-1 $48 -30 $112 30 $66 $113 forward @7 unknown T -20 291.32664619142179 -30.002525469263386 -19.999999999999993 291.32664619142179 29.997474530736614 #
point $-1 -1 -1 $-1 -20 291.32664619142179 29.997474530736614 #
name_attrib-gen-attrib $-1 -1 $114 $-1 $49 0 0 0 0 1 1 1 1 1 1 1 0 1 0 0 1 0 1 @4 bbox #
point $-1 -1 -1 $-1 -9.3740744250904875 274.44242834735189 25.076173818689135 #
real_attrib-name_attrib-gen-attrib $-1 -1 $115 $51 $1 0 0 0 0 1 1 1 1 1 1 1 0 1 0 0 1 0 1 @8 bboxymax 291.32664619142179 #
integer_attrib-name_attrib-gen-attrib $-1 -1 $-1 $53 $24 2 1 1 1 1 1 1 1 1 1 1 1 1 1 0 1 1 1 @3 pid 8 #
integer_attrib-name_attrib-gen-attrib $-1 -1 $116 $54 $35 2 0 0 1 1 1 1 1 1 1 1 1 1 1 0 1 1 1 @3 fif 0 #
coedge $-1 -1 -1 $-1 $117 $118 $-1 $119 forward $55 $-1 #
coedge $-1 -1 -1 $-1 $120 $57 $118 $121 forward $36 $-1 #
coedge $-1 -1 -1 $-1 $57 $120 $58 $87 forward $36 $-1 #
edge $122 -1 -1 $-1 $112 0 $123 35.593442714028114 $57 $124 forward @7 unknown F #
edge $125 -1 -1 $-1 $126 -218.33350899478799 $112 -178.33350899478799 $58 $127 forward @7 tangent T -20 291.32664619142179 -30.002525469263386 20.000000000000007 291.32664619142179 -30.002525469263379 #
name_attrib-gen-attrib $-1 -1 $128 $-1 $59 0 0 0 0 1 1 1 1 1 1 1 0 1 0 0 1 0 1 @4 bbox #
vertex $129 -1 -1 $-1 $59 $130 #
ellipse-curve $-1 -1 -1 $-1 2.611760899487279e-15 291.32664619142179 -0.0025254692633821288 1.224646799147353e-16 1 1.4997597826618571e-32 5.5109105961630886e-16 0 -4.5 1 I I #
edge $131 -1 -1 $-1 $93 0 $72 28.050463579028435 $60 $132 forward @7 unknown T 1.000000000000002 274.44242834735189 2.4974745307366142 9.3740744250904839 288.82664619142179 25.076173818689131 #
name_attrib-gen-attrib $-1 -1 $133 $-1 $61 0 0 0 0 1 1 1 1 1 1 1 0 1 0 0 1 0 1 @4 bbox #
vertex $134 -1 -1 $-1 $61 $135 #
straight-curve $-1 -1 -1 $-1 -0.99999999999999778 288.82664619142179 2.4974745307366142 1 -1.224646799147353e-16 1.224646799147353e-16 I I #
name_attrib-gen-attrib $-1 -1 $136 $62 $42 2 1 1 1 1 1 1 1 1 1 1 1 1 1 0 1 1 1 @3 eif #
name_attrib-gen-attrib $-1 -1 $137 $-1 $63 0 0 0 0 1 1 1 1 1 1 1 0 1 0 0 1 0 1 @4 bbox #
point $-1 -1 -1 $-1 -0.99999999999999778 288.82664619142179 2.4974745307366142 #
name_attrib-gen-attrib $-1 -1 $138 $-1 $65 0 0 0 0 1 1 1 1 1 1 1 0 1 0 0 1 0 1 @4 bbox #
intcurve-curve $-1 -1 -1 $-1 forward { projcur 2 full nubs 5 open 9 
	28.050463579028431 5 31.387348833468568 3 34.724234087908698 3 38.061119342348832 3 43.900668537619069 3 
	49.740217732889306 3 55.579766928159543 3 61.41931612342978 3 63.643906293056538 5 
	9.3740744250904804 274.44242834735189 25.076173818689131 
	9.5733105296284275 274.10019882030241 25.61336657136248 
	9.772546634158866 273.80468704600094 26.18027334967346 
	9.9717827386849969 273.55922909221272 26.771735913168399 
	10.370254947735024 273.17379173983522 27.990807012444961 
	10.768727156793378 273.00445756661094 29.258137420921514 
	10.967963261323789 272.97521753733372 29.897864721386906 
	11.366435470385206 273.02823530298872 31.175365321361657 
	11.764907679444505 273.30086762042799 32.424545761266209 
	11.964143783973844 273.49135544679802 33.035943150581772 
	12.51204307142933 274.15841172430589 34.662527255577075 
	13.059942358885801 275.19759600971207 36.097328235818807 
	13.408605541813319 275.9939049899566 36.902223249254583 
	14.105931907669586 277.80649798648705 38.244371014645345 
	14.803258273523017 279.93535644550889 38.986520993744939 
	15.151921456447647 281.04884692775329 39.191761309723482 
	15.849247822302162 283.30301786596669 39.256995158315611 
	16.546574188157877 285.47460824747486 38.648934716374377 
	16.895237371085383 286.50549243575841 38.180685369684817 
	17.592563736938065 288.39190063823571 36.94605068572087 
	18.289890102788089 289.82639800073667 35.205657567685755 
	18.638553285714508 290.40454694575072 34.232284639228027 
	19.12004053832786 290.98602281152387 32.788022045839789 
	19.601527790940544 291.25281699347892 31.269497368884696 
	19.734351860626855 291.30203877481176 30.846741112900805 
	19.867175930313305 291.32664619142179 30.422103572872768 
	20 291.32664619142179 29.997474530736625 
	0.0001938626612194225 
	cone 66.193471022451916 282.16732309571086 29.997474530736625 1 -1.224646799147353e-16 1.224646799147353e-16 1.1216935711518778e-15 9.1593230957108993 1.3736784415353107e-31 1 I I -0 1 9.1593230957108993 reversed I I I I 
	null_surface 
	nubs 5 open 12 
	28.050463579028431 5 31.387348833468568 3 34.724234087908698 3 38.061119342348832 3 41.398004596788965 3 
	44.734889851229099 3 48.071775105669239 3 51.40866036010938 3 54.745545614549513 2 58.082430868989647 2 
	61.41931612342978 3 63.643906293056538 5 
	6.2034493164640789 -2.5743606466916358 
	6.1816970425835729 -2.6439011090762485 
	6.1599447687038866 -2.7134371087718079 
	6.1381924948246711 -2.7829991248490842 
	6.0946879470664834 -2.9220650719243793 
	6.0511833993073862 -3.0611354815818466 
	6.0294311254277071 -3.1306998177298442 
	5.9859265776682724 -3.2697709765077261 
	5.9424220299090722 -3.4088404847209328 
	5.9206697560295058 -3.4784036964890452 
	5.8771652082703891 -3.6174728506558926 
	5.8336606605112156 -3.7565423298579246 
	5.8119083866316128 -3.8261057377014276 
	5.7684038388723682 -3.9651752470415986 
	5.7248992911130419 -4.104244706749629 
	5.7031470172333805 -4.1738080789496239 
	5.6596424694740985 -4.312877546618183 
	5.6161379217149872 -4.4519470173028539 
	5.5943856478354457 -4.5215103940032071 
	5.5508811000763414 -4.660579859062115 
	5.5073765523170843 -4.7996493258052686 
	5.4856242784374363 -4.8692127026178564 
	5.4421197306781277 -5.0082821715081298 
	5.3986151829188707 -5.1473516394183871 
	5.3551106351596474 -5.2864783923758516 
	5.3116060874005377 -5.4254905739236481 
	5.2463492657620669 -5.6341797882328972 
	5.2028447180029982 -5.7731864223359768 
	5.1593401702437935 -5.9123097745459079 
	5.1230863804444731 -6.0282054445827447 
	5.0868325906451881 -6.1441002746940807 
	5.0723310747254677 -6.1904637628809827 
	5.0578295588057323 -6.2368249989232929 
	5.0433280428859701 -6.2831853071795862 
	
	nullbs 
	-1 
	-1 
	I I 
	0 
	0 
	7 31.387348833468568 34.724234087908698 38.061119342348832 41.398109539341775 54.745554290151304 58.082333944568035 61.41931612342978 
	
	-1 
	none F intcurve forward { exactcur 3 full nubs 3 open 12 
	28.050463579028431 3 31.387348833468568 1 34.724234087908698 1 38.061119342348832 1 41.398004596788965 1 
	44.734889851229099 1 48.071775105669239 1 51.40866036010938 1 54.745545614549513 1 58.082430868989647 1 
	61.41931612342978 1 63.643906293056538 3 
	9.3740744250904804 274.44242834735189 25.076173818689135 
	9.7061345993203911 273.87204580227171 25.971495073146166 
	10.370254947730167 273.04590482494797 27.962252145746614 
	11.366435470386431 272.89825512321204 31.192124996973149 
	12.362615993032065 273.86000064801351 34.278947655780264 
	13.358796515680369 275.81598850378901 36.853364855790609 
	14.354977038332441 278.53213053602354 38.607238745397332 
	15.351157560976747 281.68334559895243 39.330664509946295 
	16.347338083628024 284.89248507183186 38.937058446581602 
	17.343518606277044 287.77546679233296 37.473529162239444 
	18.339699128919889 289.98724462640405 35.115237303980329 
	19.225192926829649 291.12099177705164 32.474548092294924 
	19.778626550522173 291.32664619141894 30.705189600963532 
	20 291.32664619142179 29.997474530736621 
	0 
	null_surface 
	null_surface 
	nullbs 
	nullbs 
	-1 
	-1 
	I I 
	0 
	0 
	10 31.387348833468568 34.724234087908698 38.061119342348832 41.398004596788965 44.734889851229099 48.071775105669239 51.40866036010938 54.745545614549513 58.082430868989647 61.41931612342978 
	
	-1 
	none F F 1 F 0 } I I F 28.050463579028431 F 63.643906293056538 surf1 
	} F 28.050463579028431 F 63.643906293056538 #
pcurve $-1 -1 -1 $-1 0 forward { exppc 4 nubs 1 open 2 
	-30 1 30 1 
	-18.231220365622274 -30 
	-18.231220365622267 30 
	0 
	0 
	plane -38.231220365622271 291.32664619142179 -0.0025254692633887078 -1.224646799147353e-16 -1 -1.4997597826618571e-32 -1 1.224646799147353e-16 -1.8369701987210294e-16 forward_v I I I I 
	} 0 0 #
edge $139 -1 -1 $-1 $126 0 $69 60 $67 $140 forward @7 unknown T 20 291.32664619142179 -30.002525469263379 20.000000000000007 291.32664619142179 29.997474530736621 #
pcurve $-1 -1 -1 $-1 0 forward { exppc 5 nubs 1 open 2 
	0 1 60 1 
	-58.231220365622264 30 
	-58.231220365622278 -30 
	0 
	0 
	plane -38.231220365622271 291.32664619142179 -0.0025254692633887078 -1.224646799147353e-16 -1 -1.4997597826618571e-32 -1 1.224646799147353e-16 -1.8369701987210294e-16 forward_v I I I I 
	} 0 0 #
name_attrib-gen-attrib $-1 -1 $141 $68 $45 2 1 1 1 1 1 1 1 1 1 1 1 1 1 0 1 1 1 @3 eif #
name_attrib-gen-attrib $-1 -1 $142 $-1 $69 0 0 0 0 1 1 1 1 1 1 1 0 1 0 0 1 0 1 @4 bbox #
point $-1 -1 -1 $-1 20 291.32664619142179 29.997474530736621 #
name_attrib-gen-attrib $-1 -1 $143 $71 $46 2 1 1 1 1 1 1 1 1 1 1 1 1 1 0 1 1 1 @3 eif #
name_attrib-gen-attrib $-1 -1 $144 $-1 $72 0 0 0 0 1 1 1 1 1 1 1 0 1 0 0 1 0 1 @4 bbox #
point $-1 -1 -1 $-1 9.3740744250904804 274.44242834735189 25.076173818689131 #
integer_attrib-name_attrib-gen-attrib $-1 -1 $-1 $74 $30 2 1 1 1 1 1 1 1 1 1 1 1 1 1 0 1 1 1 @3 pid 9 #
integer_attrib-name_attrib-gen-attrib $-1 -1 $145 $75 $48 2 1 1 1 1 1 1 1 1 1 1 1 1 1 0 1 1 1 @12 WCSIndicator 2 #
name_attrib-gen-attrib $-1 -1 $146 $-1 $76 0 0 0 0 1 1 1 1 1 1 1 0 1 0 0 1 0 1 @4 bbox #
vertex $147 -1 -1 $-1 $76 $148 #
straight-curve $-1 -1 -1 $-1 -19.999999999999996 291.32664619142179 -0.0025254692633845783 1.224646799147353e-16 0 -1 I I #
integer_attrib-name_attrib-gen-attrib $-1 -1 $-1 $78 $49 2 1 1 1 1 1 1 1 1 1 1 1 1 1 0 1 1 1 @3 pid 8 #
real_attrib-name_attrib-gen-attrib $-1 -1 $149 $80 $1 0 0 0 0 1 1 1 1 1 1 1 0 1 0 0 1 0 1 @8 bboxymin 273.00799999999998 #
integer_attrib-name_attrib-gen-attrib $-1 -1 $-1 $82 $35 2 1 1 1 1 1 1 1 1 1 1 1 1 1 0 1 1 1 @3 pid 9 #
coedge $-1 -1 -1 $-1 $150 $83 $-1 $151 forward $55 $-1 #
coedge $-1 -1 -1 $-1 $83 $150 $84 $121 reversed $55 $-1 #
edge $152 -1 -1 $-1 $123 35.5934427140281 $153 63.643906293056531 $83 $154 forward @7 unknown T -9.3740744250904857 274.44242834735189 -25.081224757215914 -0.99999999999999722 288.82664619142179 -2.5025254692633787 #
coedge $-1 -1 -1 $-1 $85 $84 $-1 $155 forward $36 $-1 #
edge $156 -1 -1 $-1 $123 0 $157 18.748148850180954 $84 $158 forward @7 tangent T -9.3740744250904804 274.44242834735189 -25.0812247572159 9.3740744250904875 274.44242834735189 -25.081224757215896 #
name_attrib-gen-attrib $-1 -1 $159 $-1 $86 0 0 0 0 1 1 1 1 1 1 1 0 1 0 0 1 0 1 @4 bbox #
vertex $160 -1 -1 $-1 $86 $161 #
intcurve-curve $-1 -1 -1 $-1 forward { projcur 6 full nubs 5 open 7 
	0 5 3.3368852544401357 3 10.010655763320408 3 18.352868899420749 3 26.695082035521086 3 
	30.031967289961219 3 35.593442714028114 5 
	-19.999999999999993 291.32664619142179 -30.002525469263386 
	-19.800763895457301 291.32664619142179 -30.639469032467606 
	-19.601527790925591 291.27127950404929 -31.276371720461015 
	-19.402291686400247 291.16050403886385 -31.907090649465559 
	-18.804583372829374 290.66560625142216 -33.759964862624713 
	-18.206875059232157 289.70228258253195 -35.443165079628443 
	-17.808402850168903 288.86888250847221 -36.441864976895985 
	-16.911840379789243 286.64359757261218 -38.31544011025597 
	-16.015277909413541 283.8538441725056 -39.220516372161462 
	-15.517187648083333 282.21611968636091 -39.373467626618577 
	-14.52100712543789 278.98330911579728 -38.958806232683045 
	-13.524826602794075 276.21421790300468 -37.239753939208157 
	-13.026736341464272 275.04055962374355 -36.087336982155442 
	-12.329409975608192 273.80202974990226 -34.171707275173723 
	-11.632083609754503 273.19816720224031 -32.017209560602893 
	-11.432847505224849 273.07966903842129 -31.387888191323295 
	-10.901551226478269 272.91122985567796 -29.691488676807992 
	-10.370254947728101 273.13639011218936 -27.990304265109192 
	-10.038194773518876 273.43134524942411 -26.95454678084873 
	-9.7061345993309143 273.87204580228098 -25.976546011653333 
	-9.3740744250904804 274.44242834735189 -25.0812247572159 
	0.00025532398305152284 
	cone 66.193471022451916 282.16732309571086 -30.002525469263375 -1 1.224646799147353e-16 -1.224646799147353e-16 1.1216935711518778e-15 9.1593230957108993 1.3736784415353107e-31 1 I I 0 1 9.1593230957108993 forward I I I I 
	null_surface 
	nubs 5 open 12 
	0 5 3.3368852544401357 3 6.6737705088802715 2 10.010655763320408 3 13.347541017760543 3 
	16.684426272200678 3 20.021311526640815 3 23.358196781080952 3 26.695082035521086 3 30.031967289961219 3 
	33.368852544401356 2 35.593442714028114 5 
	9.4104629918355371 0 
	9.3887107179545133 0.069540462384440394 
	9.3669584440746885 0.13907646207983884 
	9.3452061701955564 0.20863847815693015 
	9.3017016224376725 0.34770442523187939 
	9.2581970746785096 0.48677483488936524 
	9.2146925269189879 0.62590350718556764 
	9.1711879791592956 0.76491715244580805 
	9.1276834314003992 0.90404304979767347 
	9.0841788836414246 1.0431122039647729 
	9.0406743358825352 1.1821816831665473 
	9.0189220620030799 1.2517450910098509 
	8.9754175142440733 1.3908146003496107 
	8.9319129664847523 1.5298840600573795 
	8.9101606926050678 1.5994474322572727 
	8.8666561448457308 1.7385168999256897 
	8.8231515970866852 1.8775863706103624 
	8.8013993232071872 1.9471497473107353 
	8.7578947754481558 2.0862192123696977 
	8.7143902276888685 2.2252886791129689 
	8.6926379538091858 2.2948520559256305 
	8.6491334060497884 2.4339215248160406 
	8.6056288582904408 2.5729909927262695 
	8.5838765844107865 2.6425543692049547 
	8.5403720366515063 2.7816238364574715 
	8.4968674888923115 2.9206933040654284 
	8.4751152150127105 2.9902560701042251 
	8.431610667253441 3.1293224585922292 
	8.3881061194939512 3.2683860738854151 
	8.3518523296945268 3.3843244971656472 
	8.315598539895813 3.5001916650406364 
	8.2793447500981046 3.6161031161902932 
	8.2648432341782243 3.6624643522324818 
	8.2503417182574275 3.7088246604879505 
	
	nullbs 
	-1 
	-1 
	I I 
	0 
	0 
	7 3.3368852544401357 6.6737746674831726 10.010655763320408 13.347721213372161 26.695082035521086 30.031967289961219 33.368936002192655 
	
	-1 
	none F intcurve forward { exactcur 7 full nubs 3 open 12 
	0 3 3.3368852544401357 1 6.6737705088802715 1 10.010655763320408 1 13.347541017760543 1 
	16.684426272200678 1 20.021311526640815 1 23.358196781080952 1 26.695082035521086 1 30.031967289961219 1 
	33.368852544401356 1 35.593442714028114 3 
	-19.999999999999993 291.32664619142179 -30.002525469263386 
	-19.667939825762179 291.32664619141752 -31.064098074603752 
	-19.003819477359812 290.95377342931386 -33.186970783876099 
	-18.007638954697825 289.34289050675494 -35.990350044582591 
	-17.011458432053793 286.87321395246778 -38.07700437596359 
	-16.015277909413641 283.84031717351712 -39.197294311563404 
	-15.019097386759006 280.60719046394661 -39.217114496963937 
	-14.02291686411759 277.56078625599031 -38.134098979342035 
	-13.026736341464332 275.06570985982836 -36.07786561056691 
	-12.030555818813284 273.4205814496014 -33.294512582162888 
	-11.034375296166177 272.82229623612017 -30.117162038176801 
	-10.148881498248244 273.28494486674879 -27.280865445987295 
	-9.5954478745841136 274.06217331730721 -25.678105593509173 
	-9.3740744250904804 274.44242834735189 -25.0812247572159 
	0 
	null_surface 
	null_surface 
	nullbs 
	nullbs 
	-1 
	-1 
	I I 
	0 
	0 
	10 3.3368852544401357 6.6737705088802715 10.010655763320408 13.347541017760543 16.684426272200678 20.021311526640815 23.358196781080952 26.695082035521086 30.031967289961219 33.368852544401356 
	
	-1 
	none F F 1 F 0 } I I F 0 F 35.593442714028114 surf1 
	} F 0 F 35.593442714028114 #
name_attrib-gen-attrib $-1 -1 $162 $-1 $87 0 0 0 0 1 1 1 1 1 1 1 0 1 0 0 1 0 1 @4 bbox #
vertex $163 -1 -1 $-1 $87 $164 #
straight-curve $-1 -1 -1 $-1 -198.33350899478799 291.32664619142179 -30.002525469263407 -1 1.224646799147353e-16 -1.224646799147353e-16 F -396.66701798957598 F -0 #
name_attrib-gen-attrib $-1 -1 $165 $88 $59 2 1 1 1 1 1 1 1 1 1 1 1 1 1 0 1 1 1 @3 eif #
name_attrib-gen-attrib $-1 -1 $166 $-1 $89 0 0 0 0 1 1 1 1 1 1 1 0 1 0 0 1 0 1 @4 bbox #
point $-1 -1 -1 $-1 3.1628519591035879e-15 291.32664619142179 -4.5025254692633823 #
name_attrib-gen-attrib $-1 -1 $167 $-1 $91 0 0 0 0 1 1 1 1 1 1 1 0 1 0 0 1 0 1 @4 bbox #
straight-curve $-1 -1 -1 $-1 1.000000000000002 288.82664619142179 2.4974745307366142 0.29853604385174043 -0.51279786530244864 0.80493141314189132 I I #
name_attrib-gen-attrib $-1 -1 $168 $92 $61 2 1 1 1 1 1 1 1 1 1 1 1 1 1 0 1 1 1 @3 eif #
name_attrib-gen-attrib $-1 -1 $169 $-1 $93 0 0 0 0 1 1 1 1 1 1 1 0 1 0 0 1 0 1 @4 bbox #
point $-1 -1 -1 $-1 1.000000000000002 288.82664619142179 2.4974745307366142 #
integer_attrib-name_attrib-gen-attrib $-1 -1 $-1 $95 $42 2 1 1 1 1 1 1 1 1 1 1 1 1 1 0 1 1 1 @3 pid 12 #
integer_attrib-name_attrib-gen-attrib $-1 -1 $170 $96 $63 2 1 1 1 1 1 1 1 1 1 1 1 1 1 0 1 1 1 @12 WCSIndicator 3 #
name_attrib-gen-attrib $-1 -1 $171 $98 $65 2 1 1 1 1 1 1 1 1 1 1 1 1 1 0 1 1 1 @3 eif #
name_attrib-gen-attrib $-1 -1 $172 $-1 $101 0 0 0 0 1 1 1 1 1 1 1 0 1 0 0 1 0 1 @4 bbox #
straight-curve $-1 -1 -1 $-1 20.000000000000007 291.32664619142179 -30.002525469263379 -1.224646799147353e-16 0 1 I I #
integer_attrib-name_attrib-gen-attrib $-1 -1 $-1 $103 $45 2 1 1 1 1 1 1 1 1 1 1 1 1 1 0 1 1 1 @3 pid 8 #
integer_attrib-name_attrib-gen-attrib $-1 -1 $-1 $104 $69 2 1 1 1 1 1 1 1 1 1 1 1 1 1 0 1 1 1 @3 pid 6 #
integer_attrib-name_attrib-gen-attrib $-1 -1 $-1 $106 $46 2 1 1 1 1 1 1 1 1 1 1 1 1 1 0 1 1 1 @3 pid 10 #
integer_attrib-name_attrib-gen-attrib $-1 -1 $-1 $107 $72 2 1 1 1 1 1 1 1 1 1 1 1 1 1 0 1 1 1 @3 pid 9 #
integer_attrib-name_attrib-gen-attrib $-1 -1 $-1 $110 $48 2 1 1 1 1 1 1 1 1 1 1 1 1 1 0 1 1 1 @3 pid 3 #
name_attrib-gen-attrib $-1 -1 $173 $111 $76 2 1 1 1 1 1 1 1 1 1 1 1 1 1 0 1 1 1 @3 eif #
name_attrib-gen-attrib $-1 -1 $174 $-1 $112 0 0 0 0 1 1 1 1 1 1 1 0 1 0 0 1 0 1 @4 bbox #
point $-1 -1 -1 $-1 -19.999999999999993 291.32664619142179 -30.002525469263386 #
real_attrib-name_attrib-gen-attrib $-1 -1 $175 $115 $1 0 0 0 0 1 1 1 1 1 1 1 0 1 0 0 1 0 1 @8 bboxxmax 20.000000000000007 #
coedge $-1 -1 -1 $-1 $118 $117 $-1 $176 forward $55 $-1 #
edge $177 -1 -1 $-1 $153 0 $178 2 $117 $179 forward @7 unknown T -0.99999999999999722 288.82664619142179 -2.5025254692633787 1.0000000000000027 288.82664619142179 -2.5025254692633783 #
name_attrib-gen-attrib $-1 -1 $180 $-1 $119 0 0 0 0 1 1 1 1 1 1 1 0 1 0 0 1 0 1 @4 bbox #
vertex $181 -1 -1 $-1 $119 $182 #
straight-curve $-1 -1 -1 $-1 -19.999999999999993 256.1901869048333 -53.7315048996035 0.29853604385174048 0.51279786530244853 0.80493141314189109 I I #
edge $183 -1 -1 $-1 $157 28.050463579028431 $126 63.643906293056538 $120 $184 forward @7 unknown F #
name_attrib-gen-attrib $-1 -1 $185 $-1 $121 0 0 0 0 1 1 1 1 1 1 1 0 1 0 0 1 0 1 @4 bbox #
vertex $186 -1 -1 $-1 $155 $187 #
straight-curve $-1 -1 -1 $-1 -9.3740744250904804 274.44242834735189 -25.0812247572159 1 -1.224646799147353e-16 1.224646799147353e-16 F 0 F 18.748148850180954 #
name_attrib-gen-attrib $-1 -1 $188 $122 $86 2 1 1 1 1 1 1 1 1 1 1 1 1 1 0 1 1 1 @3 eif #
name_attrib-gen-attrib $-1 -1 $189 $-1 $123 0 0 0 0 1 1 1 1 1 1 1 0 1 0 0 1 0 1 @4 bbox #
point $-1 -1 -1 $-1 -9.3740744250904804 274.44242834735189 -25.0812247572159 #
name_attrib-gen-attrib $-1 -1 $190 $125 $87 2 1 1 1 1 1 1 1 1 1 1 1 1 1 0 1 1 1 @3 eif #
name_attrib-gen-attrib $-1 -1 $191 $-1 $126 0 0 0 0 1 1 1 1 1 1 1 0 1 0 0 1 0 1 @4 bbox #
point $-1 -1 -1 $-1 20.000000000000007 291.32664619142179 -30.002525469263379 #
integer_attrib-name_attrib-gen-attrib $-1 -1 $-1 $128 $59 2 1 1 1 1 1 1 1 1 1 1 1 1 1 0 1 1 1 @3 pid 26 #
integer_attrib-name_attrib-gen-attrib $-1 -1 $-1 $129 $89 2 1 1 1 1 1 1 1 1 1 1 1 1 1 0 1 1 1 @3 pid 18 #
name_attrib-gen-attrib $-1 -1 $192 $131 $91 2 1 1 1 1 1 1 1 1 1 1 1 1 1 0 1 1 1 @3 eif #
integer_attrib-name_attrib-gen-attrib $-1 -1 $-1 $133 $61 2 1 1 1 1 1 1 1 1 1 1 1 1 1 0 1 1 1 @3 pid 4 #
integer_attrib-name_attrib-gen-attrib $-1 -1 $-1 $134 $93 2 1 1 1 1 1 1 1 1 1 1 1 1 1 0 1 1 1 @3 pid 5 #
integer_attrib-name_attrib-gen-attrib $-1 -1 $-1 $137 $63 2 1 1 1 1 1 1 1 1 1 1 1 1 1 0 1 1 1 @3 pid 4 #
integer_attrib-name_attrib-gen-attrib $-1 -1 $-1 $138 $65 2 1 1 1 1 1 1 1 1 1 1 1 1 1 0 1 1 1 @3 pid 11 #
name_attrib-gen-attrib $-1 -1 $193 $139 $101 2 1 1 1 1 1 1 1 1 1 1 1 1 1 0 1 1 1 @3 eif #
integer_attrib-name_attrib-gen-attrib $-1 -1 $-1 $146 $76 2 1 1 1 1 1 1 1 1 1 1 1 1 1 0 1 1 1 @3 pid 14 #
integer_attrib-name_attrib-gen-attrib $-1 -1 $194 $147 $112 2 1 1 1 1 1 1 1 1 1 1 1 1 1 0 1 1 1 @12 WCSIndicator 2 #
real_attrib-name_attrib-gen-attrib $-1 -1 $195 $149 $1 0 0 0 0 1 1 1 1 1 1 1 0 1 0 0 1 0 1 @8 bboxxmin -20 #
edge $196 -1 -1 $-1 $178 0 $157 28.050463579028435 $150 $197 forward @7 unknown T 1.0000000000000027 274.44242834735189 -25.081224757215896 9.374074425090491 288.82664619142179 -2.5025254692633787 #
name_attrib-gen-attrib $-1 -1 $198 $-1 $151 0 0 0 0 1 1 1 1 1 1 1 0 1 0 0 1 0 1 @4 bbox #
vertex $199 -1 -1 $-1 $151 $200 #
straight-curve $-1 -1 -1 $-1 -0.99999999999999722 288.82664619142179 -2.5025254692633787 1 -1.224646799147353e-16 1.224646799147353e-16 I I #
name_attrib-gen-attrib $-1 -1 $201 $152 $119 2 1 1 1 1 1 1 1 1 1 1 1 1 1 0 1 1 1 @3 eif #
name_attrib-gen-attrib $-1 -1 $202 $-1 $153 0 0 0 0 1 1 1 1 1 1 1 0 1 0 0 1 0 1 @4 bbox #
point $-1 -1 -1 $-1 -0.99999999999999722 288.82664619142179 -2.5025254692633787 #
name_attrib-gen-attrib $-1 -1 $203 $-1 $155 0 0 0 0 1 1 1 1 1 1 1 0 1 0 0 1 0 1 @4 bbox #
intcurve-curve $-1 -1 -1 $-1 forward { projcur 8 full nubs 5 open 9 
	28.050463579028431 5 31.387348833468568 3 34.724234087908698 3 38.061119342348832 3 43.900668537619069 3 
	49.740217732889306 3 55.579766928159543 3 61.41931612342978 3 63.643906293056538 5 
	9.3740744250904875 274.44242834735189 -25.081224757215896 
	9.5733105296284347 274.10019882030241 -25.618417509889245 
	9.7725466341588731 273.80468704600094 -26.185324288200224 
	9.971782738685004 273.55922909221272 -26.776786851695164 
	10.370254947735031 273.17379173983522 -27.995857950971725 
	10.768727156793386 273.00445756661094 -29.263188359448279 
	10.967963261323796 272.97521753733372 -29.902915659913671 
	11.366435470385213 273.02823530298872 -31.180416259888421 
	11.764907679444512 273.30086762042799 -32.429596699792974 
	11.964143783973851 273.49135544679802 -33.040994089108537 
	12.512043071429337 274.15841172430589 -34.667578194103839 
	13.059942358885808 275.19759600971207 -36.102379174345572 
	13.40860554181333 275.9939049899566 -36.907274187781347 
	14.105931907669596 277.80649798648705 -38.24942195317211 
	14.803258273523028 279.93535644550889 -38.991571932271704 
	15.151921456447658 281.04884692775329 -39.196812248250247 
	15.849247822302173 283.30301786596669 -39.262046096842376 
	16.546574188157884 285.47460824747486 -38.653985654901142 
	16.89523737108539 286.50549243575841 -38.185736308211581 
	17.592563736938072 288.39190063823571 -36.951101624247634 
	18.289890102788096 289.82639800073667 -35.210708506212519 
	18.638553285714515 290.40454694575072 -34.237335577754791 
	19.120040538327867 290.98602281152387 -32.793072984366553 
	19.601527790940551 291.25281699347892 -31.274548307411454 
	19.734351860626862 291.30203877481176 -30.851792051427562 
	19.867175930313312 291.32664619142179 -30.427154511399525 
	20.000000000000007 291.32664619142179 -30.002525469263382 
	0.0001938626612194225 
	cone 66.193471022451916 282.16732309571086 -30.002525469263375 -1 1.224646799147353e-16 -1.224646799147353e-16 1.1216935711518778e-15 9.1593230957108993 1.3736784415353107e-31 1 I I 0 1 9.1593230957108993 forward I I I I 
	null_surface 
	nubs 5 open 12 
	28.050463579028431 5 31.387348833468568 3 34.724234087908698 3 38.061119342348832 3 41.398004596788965 3 
	44.734889851229099 3 48.071775105669239 3 51.40866036010938 3 54.745545614549513 2 58.082430868989647 2 
	61.41931612342978 3 63.643906293056538 5 
	6.2034493164640789 -2.5743606466916358 
	6.1816970425835729 -2.6439011090762485 
	6.1599447687038866 -2.7134371087718079 
	6.1381924948246711 -2.7829991248490842 
	6.0946879470664834 -2.9220650719243793 
	6.0511833993073862 -3.0611354815818466 
	6.0294311254277071 -3.1306998177298442 
	5.9859265776682724 -3.2697709765077261 
	5.9424220299090722 -3.4088404847209328 
	5.9206697560295058 -3.4784036964890452 
	5.8771652082703891 -3.6174728506558926 
	5.8336606605112156 -3.7565423298579246 
	5.8119083866316128 -3.8261057377014276 
	5.7684038388723682 -3.9651752470415986 
	5.7248992911130419 -4.104244706749629 
	5.7031470172333805 -4.1738080789496239 
	5.6596424694740985 -4.312877546618183 
	5.6161379217149872 -4.4519470173028539 
	5.5943856478354457 -4.5215103940032071 
	5.5508811000763414 -4.660579859062115 
	5.5073765523170843 -4.7996493258052686 
	5.4856242784374363 -4.8692127026178564 
	5.4421197306781277 -5.0082821715081298 
	5.3986151829188707 -5.1473516394183871 
	5.3551106351596474 -5.2864783923758516 
	5.3116060874005377 -5.4254905739236481 
	5.2463492657620669 -5.6341797882328972 
	5.2028447180029982 -5.7731864223359768 
	5.1593401702437935 -5.9123097745459079 
	5.1230863804444731 -6.0282054445827447 
	5.0868325906451881 -6.1441002746940807 
	5.0723310747254677 -6.1904637628809827 
	5.0578295588057323 -6.2368249989232929 
	5.0433280428859701 -6.2831853071795862 
	
	nullbs 
	-1 
	-1 
	I I 
	0 
	0 
	7 31.387348833468568 34.724234087908698 38.061119342348832 41.398109539341775 54.745554290151354 58.082333944568028 61.41931612342978 
	
	-1 
	none F intcurve forward { exactcur 9 full nubs 3 open 12 
	28.050463579028431 3 31.387348833468568 1 34.724234087908698 1 38.061119342348832 1 41.398004596788965 1 
	44.734889851229099 1 48.071775105669239 1 51.40866036010938 1 54.745545614549513 1 58.082430868989647 1 
	61.41931612342978 1 63.643906293056538 3 
	9.3740744250904875 274.44242834735189 -25.0812247572159 
	9.7061345993203982 273.87204580227171 -25.97654601167293 
	10.370254947730174 273.04590482494797 -27.967303084273379 
	11.366435470386438 272.89825512321204 -31.197175935499914 
	12.362615993032072 273.86000064801351 -34.283998594307029 
	13.35879651568038 275.81598850378901 -36.858415794317374 
	14.354977038332452 278.53213053602354 -38.612289683924097 
	15.351157560976757 281.68334559895243 -39.33571544847306 
	16.347338083628031 284.89248507183186 -38.942109385108367 
	17.343518606277051 287.77546679233296 -37.478580100766209 
	18.339699128919897 289.98724462640405 -35.120288242507094 
	19.225192926829656 291.12099177705164 -32.479599030821689 
	19.77862655052218 291.32664619141894 -30.71024053949029 
	20.000000000000007 291.32664619142179 -30.002525469263379 
	0 
	null_surface 
	null_surface 
	nullbs 
	nullbs 
	-1 
	-1 
	I I 
	0 
	0 
	10 31.387348833468568 34.724234087908698 38.061119342348832 41.398004596788965 44.734889851229099 48.071775105669239 51.40866036010938 54.745545614549513 58.082430868989647 61.41931612342978 
	
	-1 
	none F F 1 F 0 } I I F 28.050463579028431 F 63.643906293056538 surf1 
	} F 28.050463579028431 F 63.643906293056538 #
name_attrib-gen-attrib $-1 -1 $204 $156 $121 2 1 1 1 1 1 1 1 1 1 1 1 1 1 0 1 1 1 @3 eif #
name_attrib-gen-attrib $-1 -1 $205 $-1 $157 0 0 0 0 1 1 1 1 1 1 1 0 1 0 0 1 0 1 @4 bbox #
point $-1 -1 -1 $-1 9.3740744250904875 274.44242834735189 -25.081224757215896 #
integer_attrib-name_attrib-gen-attrib $-1 -1 $-1 $159 $86 2 1 1 1 1 1 1 1 1 1 1 1 1 1 0 1 1 1 @3 pid 21 #
integer_attrib-name_attrib-gen-attrib $-1 -1 $-1 $160 $123 2 1 1 1 1 1 1 1 1 1 1 1 1 1 0 1 1 1 @3 pid 16 #
integer_attrib-name_attrib-gen-attrib $-1 -1 $-1 $162 $87 2 1 1 1 1 1 1 1 1 1 1 1 1 1 0 1 1 1 @3 pid 20 #
integer_attrib-name_attrib-gen-attrib $-1 -1 $-1 $163 $126 2 1 1 1 1 1 1 1 1 1 1 1 1 1 0 1 1 1 @3 pid 14 #
integer_attrib-name_attrib-gen-attrib $-1 -1 $-1 $167 $91 2 1 1 1 1 1 1 1 1 1 1 1 1 1 0 1 1 1 @3 pid 13 #
integer_attrib-name_attrib-gen-attrib $-1 -1 $-1 $172 $101 2 1 1 1 1 1 1 1 1 1 1 1 1 1 0 1 1 1 @3 pid 18 #
integer_attrib-name_attrib-gen-attrib $-1 -1 $-1 $174 $112 2 1 1 1 1 1 1 1 1 1 1 1 1 1 0 1 1 1 @3 pid 11 #
integer_attrib-name_attrib-gen-attrib $-1 -1 $206 $175 $1 0 0 0 0 1 1 1 1 1 1 1 0 1 0 0 1 0 1 @6 bboxnv 13 #
name_attrib-gen-attrib $-1 -1 $207 $-1 $176 0 0 0 0 1 1 1 1 1 1 1 0 1 0 0 1 0 1 @4 bbox #
straight-curve $-1 -1 -1 $-1 1.0000000000000027 288.82664619142179 -2.5025254692633787 0.29853604385174065 -0.51279786530244864 -0.80493141314189132 I I #
name_attrib-gen-attrib $-1 -1 $208 $177 $151 2 1 1 1 1 1 1 1 1 1 1 1 1 1 0 1 1 1 @3 eif #
name_attrib-gen-attrib $-1 -1 $209 $-1 $178 0 0 0 0 1 1 1 1 1 1 1 0 1 0 0 1 0 1 @4 bbox #
point $-1 -1 -1 $-1 1.0000000000000027 288.82664619142179 -2.5025254692633787 #
integer_attrib-name_attrib-gen-attrib $-1 -1 $-1 $180 $119 2 1 1 1 1 1 1 1 1 1 1 1 1 1 0 1 1 1 @3 pid 24 #
integer_attrib-name_attrib-gen-attrib $-1 -1 $210 $181 $153 2 1 1 1 1 1 1 1 1 1 1 1 1 1 0 1 1 1 @12 WCSIndicator 3 #
name_attrib-gen-attrib $-1 -1 $211 $183 $155 2 1 1 1 1 1 1 1 1 1 1 1 1 1 0 1 1 1 @3 eif #
integer_attrib-name_attrib-gen-attrib $-1 -1 $-1 $185 $121 2 1 1 1 1 1 1 1 1 1 1 1 1 1 0 1 1 1 @3 pid 22 #
integer_attrib-name_attrib-gen-attrib $-1 -1 $-1 $186 $157 2 1 1 1 1 1 1 1 1 1 1 1 1 1 0 1 1 1 @3 pid 17 #
integer_attrib-name_attrib-gen-attrib $-1 -1 $212 $195 $1 0 0 0 0 1 1 1 1 1 1 1 0 1 0 0 1 0 1 @6 bboxne 17 #
name_attrib-gen-attrib $-1 -1 $213 $196 $176 2 1 1 1 1 1 1 1 1 1 1 1 1 1 0 1 1 1 @3 eif #
integer_attrib-name_attrib-gen-attrib $-1 -1 $-1 $198 $151 2 1 1 1 1 1 1 1 1 1 1 1 1 1 0 1 1 1 @3 pid 16 #
integer_attrib-name_attrib-gen-attrib $-1 -1 $-1 $199 $178 2 1 1 1 1 1 1 1 1 1 1 1 1 1 0 1 1 1 @3 pid 13 #
integer_attrib-name_attrib-gen-attrib $-1 -1 $-1 $202 $153 2 1 1 1 1 1 1 1 1 1 1 1 1 1 0 1 1 1 @3 pid 12 #
integer_attrib-name_attrib-gen-attrib $-1 -1 $-1 $203 $155 2 1 1 1 1 1 1 1 1 1 1 1 1 1 0 1 1 1 @3 pid 23 #
integer_attrib-name_attrib-gen-attrib $-1 -1 $214 $206 $1 0 0 0 0 1 1 1 1 1 1 1 0 1 0 0 1 0 1 @6 bboxnf 5 #
integer_attrib-name_attrib-gen-attrib $-1 -1 $-1 $207 $176 2 1 1 1 1 1 1 1 1 1 1 1 1 1 0 1 1 1 @3 pid 25 #
integer_attrib-name_attrib-gen-attrib $-1 -1 $215 $212 $1 2 1 1 1 1 1 1 1 1 1 1 1 1 1 0 1 1 1 @17 object_visibility 0 #
integer_attrib-name_attrib-gen-attrib $-1 -1 $216 $214 $1 2 1 1 1 1 1 1 1 1 1 1 1 1 1 0 1 1 1 @3 noe 17 #
integer_attrib-name_attrib-gen-attrib $-1 -1 $217 $215 $1 2 1 1 1 1 1 1 1 1 1 1 1 1 1 0 1 1 1 @3 nof 5 #
integer_attrib-name_attrib-gen-attrib $-1 -1 $-1 $216 $1 2 1 1 1 1 1 1 1 1 1 1 1 1 1 0 1 1 1 @12 WCSIndicator 4 #
End-of-ACIS-data 