3100 0 3 0           
20 CST MICROWAVE STUDIO 14 ACIS 31.0.1 NT 24 Mon Mar 27 16:45:58 2023 
1 9.9999999999999995e-07 1e-10 
T @77 2PE87XCF5B2FY_DRADYW2DP7W3M36D6XZ8TVJEPVAAMKKMQHKAMCJAPEYCM3K2QWXCNKE2Q439S3R 
name_attrib-gen-attrib $-1 -1 $-1 $-1 $-1 2 1 1 1 1 1 1 1 1 1 1 1 1 1 1 1 1 1 @17 VirtualBackground #
body $3 -1 -1 $-1 0 $4 $-1 $-1 F #
body $5 -1 -1 $-1 0 $6 $-1 $-1 F #
rgb_color-st-attrib $-1 -1 $7 $-1 $1 2 1 2 1 1 1 1 1 1 1 1 1 1 1 0 1 1 1 0.75294101238250732 0.75294101238250732 0.75294101238250732 #
lump $-1 -1 -1 $-1 $-1 $8 $1 F #
rgb_color-st-attrib $-1 -1 $9 $-1 $2 2 1 2 1 1 1 1 1 1 1 1 1 1 1 0 1 1 1 0.75294101238250732 0.75294101238250732 0.75294101238250732 #
lump $-1 -1 -1 $-1 $-1 $10 $2 F #
name_attrib-gen-attrib $-1 -1 $11 $3 $1 2 1 1 1 1 1 1 1 1 1 1 1 1 1 0 1 1 1 @27 c0.752941 0.752941 0.752941 #
shell $-1 -1 -1 $-1 $-1 $-1 $12 $-1 $4 F #
name_attrib-gen-attrib $-1 -1 $13 $5 $2 2 1 1 1 1 1 1 1 1 1 1 1 1 1 0 1 1 1 @27 c0.752941 0.752941 0.752941 #
shell $-1 -1 -1 $-1 $-1 $-1 $14 $-1 $6 F #
integer_attrib-name_attrib-gen-attrib $-1 -1 $15 $7 $1 2 1 1 1 1 1 1 1 1 1 1 1 1 1 0 1 1 1 @4 type 6 #
face $16 -1 -1 $-1 $17 $18 $8 $-1 $19 reversed single T -20.999999999999996 270.50799999999998 -41.661848564974285 21.000000000000007 291.32664619142179 -41.661848564974285 F #
integer_attrib-name_attrib-gen-attrib $-1 -1 $20 $9 $2 2 1 1 1 1 1 1 1 1 1 1 1 1 1 0 1 1 1 @4 type 6 #
face $21 -1 -1 $-1 $22 $23 $10 $-1 $24 forward single T -23.999999999999989 291.32664619142179 -44.661848564974292 24.000000000000011 294.32664619142179 -44.661848564974285 F #
name_attrib-gen-attrib $-1 -1 $25 $11 $1 2 1 1 1 1 1 1 1 1 1 1 1 1 1 0 1 1 1 @39 mSelf-Grounded Bow-Tie/3D-Printer_Andre #
name_attrib-gen-attrib $-1 -1 $26 $-1 $12 0 0 0 0 1 1 1 1 1 1 1 0 1 0 0 1 0 1 @4 bbox #
face $27 -1 -1 $-1 $28 $29 $8 $-1 $30 reversed single T 20.999999999999993 270.50799999999998 -41.661848564974285 21.000000000000007 291.32664619142179 41.656797626447528 F #
loop $-1 -1 -1 $-1 $-1 $31 $12 T -20.999999999999996 270.50799999999998 -41.661848564974285 21.000000000000007 291.32664619142179 -41.661848564974285 unknown #
plane-surface $-1 -1 -1 $-1 6.4387821468227575e-15 280.91732309571091 -41.661848564974285 1.224646799147353e-16 0 -1 -1 1.224646799147353e-16 -1.224646799147353e-16 reverse_v I I I I #
name_attrib-gen-attrib $-1 -1 $32 $13 $2 2 1 1 1 1 1 1 1 1 1 1 1 1 1 0 1 1 1 @39 mSelf-Grounded Bow-Tie/3D-Printer_Andre #
name_attrib-gen-attrib $-1 -1 $33 $-1 $14 0 0 0 0 1 1 1 1 1 1 1 0 1 0 0 1 0 1 @4 bbox #
face $34 -1 -1 $-1 $35 $36 $10 $-1 $37 forward single T -24.000000000000004 291.32664619142179 44.656797626447513 23.999999999999996 294.32664619142179 44.656797626447521 F #
loop $-1 -1 -1 $-1 $-1 $38 $14 T -23.999999999999989 291.32664619142179 -44.661848564974292 24.000000000000011 294.32664619142179 -44.661848564974285 unknown #
plane-surface $-1 -1 -1 $-1 8.0809506076122596e-15 291.32664619142179 -44.661848564974285 1.224646799147353e-16 0 -1 1 -1.224646799147353e-16 1.224646799147353e-16 reverse_v I I I I #
name_attrib-gen-attrib $-1 -1 $39 $15 $1 2 1 1 1 1 1 1 1 1 1 1 1 1 1 0 1 1 1 @58 nSelf-Grounded Bow-Tie/BuildingBlock:BuildingBlock_Housing #
integer_attrib-name_attrib-gen-attrib $-1 -1 $40 $16 $12 2 0 0 1 1 1 1 1 1 1 1 1 1 1 0 1 1 1 @3 fif 0 #
name_attrib-gen-attrib $-1 -1 $41 $-1 $17 0 0 0 0 1 1 1 1 1 1 1 0 1 0 0 1 0 1 @4 bbox #
face $42 -1 -1 $-1 $43 $44 $8 $-1 $45 reversed single T -21.000000000000004 270.50799999999998 41.656797626447521 21 291.32664619142179 41.656797626447521 F #
loop $-1 -1 -1 $-1 $-1 $46 $17 T 20.999999999999993 270.50799999999998 -41.661848564974285 21.000000000000007 291.32664619142179 41.656797626447528 unknown #
plane-surface $-1 -1 -1 $-1 21 280.91732309571091 20.827136078592073 1 -1.224646799147353e-16 1.224646799147353e-16 -1.224646799147353e-16 0 1 forward_v I I I I #
coedge $-1 -1 -1 $-1 $47 $48 $49 $50 reversed $18 $-1 #
name_attrib-gen-attrib $-1 -1 $51 $20 $2 2 1 1 1 1 1 1 1 1 1 1 1 1 1 0 1 1 1 @54 nSelf-Grounded Bow-Tie/BuildingBlock:BuildingBlock_Top #
integer_attrib-name_attrib-gen-attrib $-1 -1 $52 $21 $14 2 0 0 1 1 1 1 1 1 1 1 1 1 1 0 1 1 1 @3 fif 0 #
name_attrib-gen-attrib $-1 -1 $53 $-1 $22 0 0 0 0 1 1 1 1 1 1 1 0 1 0 0 1 0 1 @4 bbox #
face $54 -1 -1 $-1 $55 $56 $10 $-1 $57 forward single T -24.000000000000004 291.32664619142179 -44.661848564974285 -23.999999999999989 294.32664619142179 44.656797626447521 F #
loop $-1 -1 -1 $-1 $-1 $58 $22 T -24.000000000000004 291.32664619142179 44.656797626447513 23.999999999999996 294.32664619142179 44.656797626447521 unknown #
plane-surface $-1 -1 -1 $-1 -2.8574288086377021e-15 291.32664619142179 44.656797626447521 -1.224646799147353e-16 0 1 1 -1.224646799147353e-16 1.224646799147353e-16 forward_v I I I I #
coedge $-1 -1 -1 $-1 $59 $60 $61 $62 reversed $23 $-1 #
real_attrib-name_attrib-gen-attrib $-1 -1 $63 $25 $1 0 0 0 0 1 1 1 1 1 1 1 0 1 0 0 1 0 1 @8 bboxzmax 44.656797626447521 #
integer_attrib-name_attrib-gen-attrib $-1 -1 $-1 $26 $12 2 1 1 1 1 1 1 1 1 1 1 1 1 1 0 1 1 1 @3 pid 4 #
integer_attrib-name_attrib-gen-attrib $-1 -1 $64 $27 $17 2 0 0 1 1 1 1 1 1 1 1 1 1 1 0 1 1 1 @3 fif 0 #
name_attrib-gen-attrib $-1 -1 $65 $-1 $28 0 0 0 0 1 1 1 1 1 1 1 0 1 0 0 1 0 1 @4 bbox #
face $66 -1 -1 $-1 $67 $68 $8 $-1 $69 reversed single T -21.000000000000007 270.50799999999998 -41.661848564974292 -20.999999999999993 291.32664619142179 41.656797626447521 F #
loop $-1 -1 -1 $-1 $-1 $70 $28 T -21.000000000000004 270.50799999999998 41.656797626447521 21 291.32664619142179 41.656797626447521 unknown #
plane-surface $-1 -1 -1 $-1 -3.7648091899387937e-15 280.91732309571091 41.656797626447521 -1.224646799147353e-16 0 1 -1 1.224646799147353e-16 -1.224646799147353e-16 forward_v I I I I #
coedge $-1 -1 -1 $-1 $71 $72 $73 $74 reversed $29 $-1 #
coedge $-1 -1 -1 $-1 $75 $31 $76 $77 forward $18 $-1 #
coedge $-1 -1 -1 $-1 $31 $75 $71 $78 reversed $18 $-1 #
coedge $-1 -1 -1 $-1 $73 $79 $31 $50 forward $80 $-1 #
edge $81 -1 -1 $-1 $82 -21 $83 21 $49 $84 forward @7 unknown T -20.999999999999993 291.32664619142179 -41.661848564974285 21.000000000000007 291.32664619142179 -41.661848564974285 #
real_attrib-name_attrib-gen-attrib $-1 -1 $85 $32 $2 0 0 0 0 1 1 1 1 1 1 1 0 1 0 0 1 0 1 @8 bboxzmax 44.656797626447521 #
integer_attrib-name_attrib-gen-attrib $-1 -1 $-1 $33 $14 2 1 1 1 1 1 1 1 1 1 1 1 1 1 0 1 1 1 @3 pid 10 #
integer_attrib-name_attrib-gen-attrib $-1 -1 $86 $34 $22 2 0 0 1 1 1 1 1 1 1 1 1 1 1 0 1 1 1 @3 fif 0 #
name_attrib-gen-attrib $-1 -1 $87 $-1 $35 0 0 0 0 1 1 1 1 1 1 1 0 1 0 0 1 0 1 @4 bbox #
face $88 -1 -1 $-1 $89 $90 $10 $-1 $91 forward single T 23.999999999999996 291.32664619142179 -44.661848564974285 24.000000000000011 294.32664619142179 44.656797626447521 F #
loop $-1 -1 -1 $-1 $-1 $92 $35 T -24.000000000000004 291.32664619142179 -44.661848564974285 -23.999999999999989 294.32664619142179 44.656797626447521 unknown #
plane-surface $-1 -1 -1 $-1 -24 291.32664619142179 22.327136078592066 -1 1.224646799147353e-16 -1.224646799147353e-16 -1.224646799147353e-16 0 1 forward_v I I I I #
coedge $-1 -1 -1 $-1 $93 $94 $95 $96 forward $36 $-1 #
coedge $-1 -1 -1 $-1 $97 $38 $98 $99 reversed $23 $-1 #
coedge $-1 -1 -1 $-1 $38 $97 $100 $101 forward $23 $-1 #
coedge $-1 -1 -1 $-1 $102 $103 $38 $62 forward $104 $-1 #
edge $105 -1 -1 $-1 $106 0 $107 48 $38 $108 forward @7 unknown T -23.999999999999989 294.32664619142179 -44.661848564974292 24.000000000000011 294.32664619142179 -44.661848564974285 #
real_attrib-name_attrib-gen-attrib $-1 -1 $109 $39 $1 0 0 0 0 1 1 1 1 1 1 1 0 1 0 0 1 0 1 @8 bboxzmin -44.661848564974285 #
integer_attrib-name_attrib-gen-attrib $-1 -1 $-1 $41 $17 2 1 1 1 1 1 1 1 1 1 1 1 1 1 0 1 1 1 @3 pid 9 #
integer_attrib-name_attrib-gen-attrib $-1 -1 $110 $42 $28 2 0 0 1 1 1 1 1 1 1 1 1 1 1 0 1 1 1 @3 fif 0 #
name_attrib-gen-attrib $-1 -1 $111 $-1 $43 0 0 0 0 1 1 1 1 1 1 1 0 1 0 0 1 0 1 @4 bbox #
face $112 -1 -1 $-1 $113 $114 $8 $-1 $115 forward single T -23.999999999999993 270.50799999999998 -44.661848564974292 24.000000000000011 291.32664619142179 -44.661848564974285 F #
loop $-1 -1 -1 $-1 $-1 $116 $43 T -21.000000000000007 270.50799999999998 -41.661848564974292 -20.999999999999993 291.32664619142179 41.656797626447521 unknown #
plane-surface $-1 -1 -1 $-1 -21 280.91732309571091 20.827136078592066 -1 1.224646799147353e-16 -1.224646799147353e-16 1.224646799147353e-16 0 -1 forward_v I I I I #
coedge $-1 -1 -1 $-1 $117 $118 $119 $120 reversed $44 $-1 #
coedge $-1 -1 -1 $-1 $121 $46 $48 $78 forward $29 $-1 #
coedge $-1 -1 -1 $-1 $46 $121 $117 $122 reversed $29 $-1 #
coedge $-1 -1 -1 $-1 $119 $49 $46 $74 forward $80 $-1 #
edge $123 -1 -1 $-1 $83 -63.238984643566354 $124 20.079661547855451 $73 $125 forward @7 unknown T 20.999999999999996 291.32664619142179 -41.661848564974285 21.000000000000007 291.32664619142179 41.656797626447528 #
coedge $-1 -1 -1 $-1 $48 $47 $126 $127 reversed $18 $-1 #
coedge $-1 -1 -1 $-1 $116 $128 $47 $77 reversed $68 $-1 #
edge $129 -1 -1 $-1 $82 0 $130 1 $76 $131 forward @7 unknown T -20.999999999999996 270.50799999999998 -41.661848564974285 -20.999999999999993 291.32664619142179 -41.661848564974285 #
edge $132 -1 -1 $-1 $83 0 $133 1 $48 $134 forward @7 unknown T 21.000000000000004 270.50799999999998 -41.661848564974285 21.000000000000007 291.32664619142179 -41.661848564974285 #
coedge $-1 -1 -1 $-1 $49 $119 $116 $135 forward $80 $-1 #
loop $-1 -1 -1 $-1 $136 $49 $137 T -21.000000000000004 291.32664619142179 -41.661848564974292 21.000000000000007 291.32664619142179 41.656797626447528 unknown #
name_attrib-gen-attrib $-1 -1 $138 $-1 $50 0 0 0 0 1 1 1 1 1 1 1 0 1 0 0 1 0 1 @4 bbox #
vertex $139 -1 -1 $-1 $50 $140 #
vertex $141 -1 -1 $-1 $50 $142 #
straight-curve $-1 -1 -1 $-1 7.7135565678680542e-15 291.32664619142179 -41.661848564974285 1 -1.224646799147353e-16 1.224646799147353e-16 I I #
real_attrib-name_attrib-gen-attrib $-1 -1 $143 $51 $2 0 0 0 0 1 1 1 1 1 1 1 0 1 0 0 1 0 1 @8 bboxzmin -44.661848564974285 #
integer_attrib-name_attrib-gen-attrib $-1 -1 $-1 $53 $22 2 1 1 1 1 1 1 1 1 1 1 1 1 1 0 1 1 1 @3 pid 16 #
integer_attrib-name_attrib-gen-attrib $-1 -1 $144 $54 $35 2 0 0 1 1 1 1 1 1 1 1 1 1 1 0 1 1 1 @3 fif 0 #
name_attrib-gen-attrib $-1 -1 $145 $-1 $55 0 0 0 0 1 1 1 1 1 1 1 0 1 0 0 1 0 1 @4 bbox #
face $146 -1 -1 $-1 $147 $104 $10 $-1 $148 reversed single F F #
loop $-1 -1 -1 $-1 $-1 $149 $55 T 23.999999999999996 291.32664619142179 -44.661848564974285 24.000000000000011 294.32664619142179 44.656797626447521 unknown #
plane-surface $-1 -1 -1 $-1 24 291.32664619142179 22.327136078592073 1 -1.224646799147353e-16 1.224646799147353e-16 1.224646799147353e-16 0 -1 forward_v I I I I #
coedge $-1 -1 -1 $-1 $100 $150 $102 $151 forward $56 $-1 #
coedge $-1 -1 -1 $-1 $152 $58 $150 $153 reversed $36 $-1 #
coedge $-1 -1 -1 $-1 $58 $152 $154 $155 forward $36 $-1 #
coedge $-1 -1 -1 $-1 $103 $102 $58 $96 reversed $104 $-1 #
edge $156 -1 -1 $-1 $157 0 $158 48 $58 $159 forward @7 unknown T -24.000000000000004 294.32664619142179 44.656797626447513 23.999999999999996 294.32664619142179 44.656797626447521 #
coedge $-1 -1 -1 $-1 $60 $59 $160 $161 forward $23 $-1 #
coedge $-1 -1 -1 $-1 $149 $162 $59 $99 forward $90 $-1 #
edge $163 -1 -1 $-1 $164 0 $106 3 $59 $165 forward @7 unknown T 24.000000000000011 291.32664619142179 -44.661848564974285 24.000000000000011 294.32664619142179 -44.661848564974285 #
coedge $-1 -1 -1 $-1 $166 $92 $60 $101 reversed $56 $-1 #
edge $167 -1 -1 $-1 $168 0 $107 3 $100 $169 forward @7 unknown T -23.999999999999989 291.32664619142179 -44.661848564974285 -23.999999999999989 294.32664619142179 -44.661848564974285 #
coedge $-1 -1 -1 $-1 $95 $61 $92 $151 reversed $104 $-1 #
coedge $-1 -1 -1 $-1 $61 $95 $149 $170 forward $104 $-1 #
loop $-1 -1 -1 $-1 $-1 $95 $89 T -24.000000000000004 294.32664619142179 -44.661848564974292 24.000000000000011 294.32664619142179 44.656797626447521 unknown #
name_attrib-gen-attrib $-1 -1 $171 $-1 $62 0 0 0 0 1 1 1 1 1 1 1 0 1 0 0 1 0 1 @4 bbox #
vertex $172 -1 -1 $-1 $99 $173 #
vertex $174 -1 -1 $-1 $101 $175 #
straight-curve $-1 -1 -1 $-1 24.000000000000011 294.32664619142179 -44.661848564974285 -1 1.224646799147353e-16 -1.224646799147353e-16 I I #
real_attrib-name_attrib-gen-attrib $-1 -1 $176 $63 $1 0 0 0 0 1 1 1 1 1 1 1 0 1 0 0 1 0 1 @8 bboxymax 291.32664619142179 #
integer_attrib-name_attrib-gen-attrib $-1 -1 $-1 $65 $28 2 1 1 1 1 1 1 1 1 1 1 1 1 1 0 1 1 1 @3 pid 10 #
integer_attrib-name_attrib-gen-attrib $-1 -1 $177 $66 $43 2 0 0 1 1 1 1 1 1 1 1 1 1 1 0 1 1 1 @3 fif 0 #
name_attrib-gen-attrib $-1 -1 $178 $-1 $67 0 0 0 0 1 1 1 1 1 1 1 0 1 0 0 1 0 1 @4 bbox #
face $179 -1 -1 $-1 $137 $180 $8 $-1 $181 forward single T -24.000000000000007 270.50799999999998 -44.661848564974292 24.000000000000007 270.50799999999998 44.656797626447521 F #
loop $-1 -1 -1 $-1 $-1 $182 $67 T -23.999999999999993 270.50799999999998 -44.661848564974292 24.000000000000011 291.32664619142179 -44.661848564974285 unknown #
plane-surface $-1 -1 -1 $-1 6.8061761865669629e-15 280.91732309571091 -44.661848564974285 1.224646799147353e-16 0 -1 -1 1.224646799147353e-16 -1.224646799147353e-16 reverse_v I I I I #
coedge $-1 -1 -1 $-1 $183 $76 $79 $135 reversed $68 $-1 #
coedge $-1 -1 -1 $-1 $184 $70 $72 $122 forward $44 $-1 #
coedge $-1 -1 -1 $-1 $70 $184 $183 $185 reversed $44 $-1 #
coedge $-1 -1 -1 $-1 $79 $73 $70 $120 forward $80 $-1 #
edge $186 -1 -1 $-1 $124 -21 $187 21 $119 $188 forward @7 unknown T -21.000000000000004 291.32664619142179 41.656797626447521 21 291.32664619142179 41.656797626447521 #
coedge $-1 -1 -1 $-1 $72 $71 $189 $190 reversed $29 $-1 #
edge $191 -1 -1 $-1 $124 0 $192 1 $117 $193 forward @7 unknown T 20.999999999999996 270.50799999999998 41.656797626447521 21 291.32664619142179 41.656797626447521 #
name_attrib-gen-attrib $-1 -1 $194 $-1 $74 0 0 0 0 1 1 1 1 1 1 1 0 1 0 0 1 0 1 @4 bbox #
vertex $195 -1 -1 $-1 $74 $196 #
straight-curve $-1 -1 -1 $-1 21 291.32664619142179 21.577136078592073 -1.224646799147353e-16 0 1 I I #
coedge $-1 -1 -1 $-1 $197 $189 $75 $127 forward $180 $-1 #
edge $198 -1 -1 $-1 $133 -21 $130 21 $126 $199 forward @7 unknown T -20.999999999999996 270.50799999999998 -41.661848564974285 21.000000000000004 270.50799999999998 -41.661848564974285 #
coedge $-1 -1 -1 $-1 $76 $183 $197 $200 reversed $68 $-1 #
name_attrib-gen-attrib $-1 -1 $201 $-1 $77 0 0 0 0 1 1 1 1 1 1 1 0 1 0 0 1 0 1 @4 bbox #
vertex $202 -1 -1 $-1 $127 $203 #
intcurve-curve $-1 -1 -1 $-1 forward { exactcur 0 full nubs 1 open 2 
	0 1 1 1 
	-20.999999999999993 291.32664619142179 -41.661848564974285 
	-20.999999999999996 270.50799999999998 -41.661848564974285 
	0 
	null_surface 
	null_surface 
	nullbs 
	nullbs 
	-1 
	-1 
	I I 
	0 
	0 
	0 
	
	-1 
	none F F 1 F 0 } I I #
name_attrib-gen-attrib $-1 -1 $204 $-1 $78 0 0 0 0 1 1 1 1 1 1 1 0 1 0 0 1 0 1 @4 bbox #
vertex $205 -1 -1 $-1 $127 $206 #
intcurve-curve $-1 -1 -1 $-1 forward { exactcur 1 full nubs 1 open 2 
	0 1 1 1 
	21.000000000000007 291.32664619142179 -41.661848564974285 
	21.000000000000004 270.50799999999998 -41.661848564974285 
	0 
	null_surface 
	null_surface 
	nullbs 
	nullbs 
	-1 
	-1 
	I I 
	0 
	0 
	0 
	
	-1 
	none F F 1 F 0 } I I #
edge $207 -1 -1 $-1 $187 -20.079661547855451 $82 63.238984643566354 $79 $208 forward @7 unknown T -21.000000000000004 291.32664619142179 -41.661848564974292 -20.999999999999993 291.32664619142179 41.656797626447521 #
loop $-1 -1 -1 $-1 $-1 $209 $137 T -24.000000000000004 291.32664619142179 -44.661848564974292 24.000000000000011 291.32664619142179 44.656797626447521 unknown #
face $210 -1 -1 $-1 $211 $80 $8 $-1 $212 reversed single T -24.000000000000004 291.32664619142179 -44.661848564974292 24.000000000000011 291.32664619142179 44.656797626447521 F #
name_attrib-gen-attrib $-1 -1 $213 $81 $50 2 1 1 1 1 1 1 1 1 1 1 1 1 1 0 1 1 1 @3 eif #
name_attrib-gen-attrib $-1 -1 $214 $-1 $82 0 0 0 0 1 1 1 1 1 1 1 0 1 0 0 1 0 1 @4 bbox #
point $-1 -1 -1 $-1 -20.999999999999993 291.32664619142179 -41.661848564974285 #
name_attrib-gen-attrib $-1 -1 $215 $-1 $83 0 0 0 0 1 1 1 1 1 1 1 0 1 0 0 1 0 1 @4 bbox #
point $-1 -1 -1 $-1 21.000000000000007 291.32664619142179 -41.661848564974285 #
real_attrib-name_attrib-gen-attrib $-1 -1 $216 $85 $2 0 0 0 0 1 1 1 1 1 1 1 0 1 0 0 1 0 1 @8 bboxymax 294.32664619142179 #
integer_attrib-name_attrib-gen-attrib $-1 -1 $-1 $87 $35 2 1 1 1 1 1 1 1 1 1 1 1 1 1 0 1 1 1 @3 pid 17 #
integer_attrib-name_attrib-gen-attrib $-1 -1 $217 $88 $55 2 0 0 1 1 1 1 1 1 1 1 1 1 1 0 1 1 1 @3 fif 0 #
name_attrib-gen-attrib $-1 -1 $218 $-1 $89 0 0 0 0 1 1 1 1 1 1 1 0 1 0 0 1 0 1 @4 bbox #
face $219 -1 -1 $-1 $-1 $220 $10 $-1 $221 forward single T -24.000000000000004 291.32664619142179 -44.661848564974292 24.000000000000011 291.32664619142179 44.656797626447521 F #
plane-surface $-1 -1 -1 $-1 24.000000000000004 294.32664619142179 -0.0025254692633789539 -1.224646799147353e-16 -1 -1.4997597826618571e-32 1.224646799147353e-16 0 -1 forward_v I I I I #
coedge $-1 -1 -1 $-1 $154 $98 $103 $170 reversed $90 $-1 #
coedge $-1 -1 -1 $-1 $92 $166 $93 $153 forward $56 $-1 #
edge $222 -1 -1 $-1 $158 0 $107 89.318646191421806 $92 $223 forward @7 unknown T -24.000000000000004 294.32664619142179 -44.661848564974285 -23.999999999999989 294.32664619142179 44.656797626447521 #
coedge $-1 -1 -1 $-1 $94 $93 $224 $225 reversed $36 $-1 #
edge $226 -1 -1 $-1 $227 0 $158 3 $150 $228 forward @7 unknown T -24.000000000000004 291.32664619142179 44.656797626447521 -24.000000000000004 294.32664619142179 44.656797626447521 #
coedge $-1 -1 -1 $-1 $162 $149 $94 $155 reversed $90 $-1 #
edge $229 -1 -1 $-1 $230 0 $157 3 $94 $231 forward @7 unknown T 23.999999999999996 291.32664619142179 44.656797626447521 23.999999999999996 294.32664619142179 44.656797626447521 #
name_attrib-gen-attrib $-1 -1 $232 $-1 $96 0 0 0 0 1 1 1 1 1 1 1 0 1 0 0 1 0 1 @4 bbox #
vertex $233 -1 -1 $-1 $155 $234 #
vertex $235 -1 -1 $-1 $153 $236 #
straight-curve $-1 -1 -1 $-1 23.999999999999996 294.32664619142179 44.656797626447521 -1 1.224646799147353e-16 -1.224646799147353e-16 I I #
coedge $-1 -1 -1 $-1 $237 $238 $97 $161 reversed $220 $-1 #
edge $239 -1 -1 $-1 $164 0 $168 48 $97 $240 forward @7 unknown T -23.999999999999989 291.32664619142179 -44.661848564974292 24.000000000000011 291.32664619142179 -44.661848564974285 #
coedge $-1 -1 -1 $-1 $98 $154 $237 $241 reversed $90 $-1 #
name_attrib-gen-attrib $-1 -1 $242 $-1 $99 0 0 0 0 1 1 1 1 1 1 1 0 1 0 0 1 0 1 @4 bbox #
vertex $243 -1 -1 $-1 $241 $244 #
straight-curve $-1 -1 -1 $-1 24.000000000000011 291.32664619142179 -44.661848564974285 1.224646799147353e-16 1 1.4997597826618571e-32 I I #
coedge $-1 -1 -1 $-1 $150 $100 $238 $245 reversed $56 $-1 #
name_attrib-gen-attrib $-1 -1 $246 $-1 $101 0 0 0 0 1 1 1 1 1 1 1 0 1 0 0 1 0 1 @4 bbox #
vertex $247 -1 -1 $-1 $161 $248 #
straight-curve $-1 -1 -1 $-1 -23.999999999999989 291.32664619142179 -44.661848564974285 1.224646799147353e-16 1 1.4997597826618571e-32 I I #
edge $249 -1 -1 $-1 $157 -44.659323095710903 $106 44.659323095710903 $149 $250 forward @7 unknown T 23.999999999999996 294.32664619142179 -44.661848564974285 24.000000000000011 294.32664619142179 44.656797626447521 #
name_attrib-gen-attrib $-1 -1 $251 $105 $62 2 1 1 1 1 1 1 1 1 1 1 1 1 1 0 1 1 1 @3 eif #
name_attrib-gen-attrib $-1 -1 $252 $-1 $106 0 0 0 0 1 1 1 1 1 1 1 0 1 0 0 1 0 1 @4 bbox #
point $-1 -1 -1 $-1 24.000000000000011 294.32664619142179 -44.661848564974285 #
name_attrib-gen-attrib $-1 -1 $253 $-1 $107 0 0 0 0 1 1 1 1 1 1 1 0 1 0 0 1 0 1 @4 bbox #
point $-1 -1 -1 $-1 -23.999999999999989 294.32664619142179 -44.661848564974285 #
real_attrib-name_attrib-gen-attrib $-1 -1 $254 $109 $1 0 0 0 0 1 1 1 1 1 1 1 0 1 0 0 1 0 1 @8 bboxymin 270.50799999999998 #
integer_attrib-name_attrib-gen-attrib $-1 -1 $-1 $111 $43 2 1 1 1 1 1 1 1 1 1 1 1 1 1 0 1 1 1 @3 pid 11 #
integer_attrib-name_attrib-gen-attrib $-1 -1 $255 $112 $67 2 0 0 1 1 1 1 1 1 1 1 1 1 1 0 1 1 1 @3 fif 0 #
name_attrib-gen-attrib $-1 -1 $256 $-1 $113 0 0 0 0 1 1 1 1 1 1 1 0 1 0 0 1 0 1 @4 bbox #
loop $-1 -1 -1 $-1 $257 $126 $113 T -21.000000000000007 270.50799999999998 -41.661848564974292 21.000000000000004 270.50799999999998 41.656797626447528 unknown #
plane-surface $-1 -1 -1 $-1 -2.8396919252074517e-15 270.50799999999998 22.327136078592069 -1.224646799147353e-16 -1 -2.3413137574546097e-31 1.224646799147353e-16 2.1913377791884242e-31 -1 forward_v I I I I #
coedge $-1 -1 -1 $-1 $258 $259 $260 $261 reversed $114 $-1 #
coedge $-1 -1 -1 $-1 $128 $116 $118 $185 forward $68 $-1 #
coedge $-1 -1 -1 $-1 $118 $117 $262 $263 reversed $44 $-1 #
edge $264 -1 -1 $-1 $187 0 $265 1 $183 $266 forward @7 unknown T -21.000000000000004 270.50799999999998 41.656797626447521 -21 291.32664619142179 41.656797626447521 #
name_attrib-gen-attrib $-1 -1 $267 $-1 $120 0 0 0 0 1 1 1 1 1 1 1 0 1 0 0 1 0 1 @4 bbox #
vertex $268 -1 -1 $-1 $120 $269 #
straight-curve $-1 -1 -1 $-1 -2.4900347688934966e-15 291.32664619142179 41.656797626447521 -1 1.224646799147353e-16 -1.224646799147353e-16 I I #
coedge $-1 -1 -1 $-1 $126 $262 $121 $190 forward $180 $-1 #
edge $270 -1 -1 $-1 $192 -20.079661547855451 $133 63.238984643566354 $189 $271 forward @7 unknown T 20.999999999999993 270.50799999999998 -41.661848564974285 21.000000000000004 270.50799999999998 41.656797626447528 #
name_attrib-gen-attrib $-1 -1 $272 $-1 $122 0 0 0 0 1 1 1 1 1 1 1 0 1 0 0 1 0 1 @4 bbox #
vertex $273 -1 -1 $-1 $190 $274 #
intcurve-curve $-1 -1 -1 $-1 forward { exactcur 2 full nubs 1 open 2 
	0 1 1 1 
	21 291.32664619142179 41.656797626447521 
	20.999999999999996 270.50799999999998 41.656797626447521 
	0 
	null_surface 
	null_surface 
	nullbs 
	nullbs 
	-1 
	-1 
	I I 
	0 
	0 
	0 
	
	-1 
	none F F 1 F 0 } I I #
name_attrib-gen-attrib $-1 -1 $275 $123 $74 2 1 1 1 1 1 1 1 1 1 1 1 1 1 0 1 1 1 @3 eif #
name_attrib-gen-attrib $-1 -1 $276 $-1 $124 0 0 0 0 1 1 1 1 1 1 1 0 1 0 0 1 0 1 @4 bbox #
point $-1 -1 -1 $-1 21 291.32664619142179 41.656797626447521 #
coedge $-1 -1 -1 $-1 $262 $126 $128 $200 forward $180 $-1 #
name_attrib-gen-attrib $-1 -1 $277 $-1 $127 0 0 0 0 1 1 1 1 1 1 1 0 1 0 0 1 0 1 @4 bbox #
straight-curve $-1 -1 -1 $-1 5.1640077257774608e-15 270.50799999999998 -41.661848564974285 -1 1.224646799147353e-16 -1.224646799147353e-16 I I #
edge $278 -1 -1 $-1 $130 -63.238984643566354 $265 20.079661547855451 $197 $279 forward @7 unknown T -21.000000000000007 270.50799999999998 -41.661848564974292 -20.999999999999996 270.50799999999998 41.656797626447521 #
name_attrib-gen-attrib $-1 -1 $280 $129 $77 2 1 1 1 1 1 1 1 1 1 1 1 1 1 0 1 1 1 @3 eif #
name_attrib-gen-attrib $-1 -1 $281 $-1 $130 0 0 0 0 1 1 1 1 1 1 1 0 1 0 0 1 0 1 @4 bbox #
point $-1 -1 -1 $-1 -20.999999999999996 270.50799999999998 -41.661848564974285 #
name_attrib-gen-attrib $-1 -1 $282 $132 $78 2 1 1 1 1 1 1 1 1 1 1 1 1 1 0 1 1 1 @3 eif #
name_attrib-gen-attrib $-1 -1 $283 $-1 $133 0 0 0 0 1 1 1 1 1 1 1 0 1 0 0 1 0 1 @4 bbox #
point $-1 -1 -1 $-1 21.000000000000004 270.50799999999998 -41.661848564974285 #
name_attrib-gen-attrib $-1 -1 $284 $-1 $135 0 0 0 0 1 1 1 1 1 1 1 0 1 0 0 1 0 1 @4 bbox #
straight-curve $-1 -1 -1 $-1 -21 291.32664619142179 21.577136078592066 1.224646799147353e-16 0 -1 I I #
coedge $285 -1 -1 $-1 $260 $286 $287 $288 reversed $136 $-1 #
name_attrib-gen-attrib $-1 -1 $289 $-1 $137 0 0 0 0 1 1 1 1 1 1 1 0 1 0 0 1 0 1 @4 bbox #
face $290 -1 -1 $-1 $291 $292 $8 $-1 $293 forward single T 23.999999999999993 270.50799999999998 -44.661848564974285 24.000000000000011 291.32664619142179 44.656797626447521 F #
plane-surface $-1 -1 -1 $-1 -2.9014308311685753e-16 291.32664619142179 22.327136078592069 -1.224646799147353e-16 -1 -1.4997597826618571e-32 1.224646799147353e-16 0 -1 forward_v I I I I #
integer_attrib-name_attrib-gen-attrib $-1 -1 $-1 $138 $50 2 1 1 1 1 1 1 1 1 1 1 1 1 1 0 1 1 1 @3 pid 47 #
integer_attrib-name_attrib-gen-attrib $-1 -1 $-1 $139 $82 2 1 1 1 1 1 1 1 1 1 1 1 1 1 0 1 1 1 @3 pid 34 #
integer_attrib-name_attrib-gen-attrib $-1 -1 $-1 $141 $83 2 1 1 1 1 1 1 1 1 1 1 1 1 1 0 1 1 1 @3 pid 33 #
real_attrib-name_attrib-gen-attrib $-1 -1 $294 $143 $2 0 0 0 0 1 1 1 1 1 1 1 0 1 0 0 1 0 1 @8 bboxymin 291.32664619142179 #
integer_attrib-name_attrib-gen-attrib $-1 -1 $-1 $145 $55 2 1 1 1 1 1 1 1 1 1 1 1 1 1 0 1 1 1 @3 pid 19 #
integer_attrib-name_attrib-gen-attrib $-1 -1 $295 $146 $89 2 0 0 1 1 1 1 1 1 1 1 1 1 1 0 1 1 1 @3 fif 0 #
name_attrib-gen-attrib $-1 -1 $296 $-1 $147 0 0 0 0 1 1 1 1 1 1 1 0 1 0 0 1 0 1 @4 bbox #
loop $-1 -1 -1 $-1 $-1 $237 $147 T -24.000000000000004 291.32664619142179 -44.661848564974292 24.000000000000011 291.32664619142179 44.656797626447521 unknown #
plane-surface $-1 -1 -1 $-1 -2.9014308311685753e-16 291.32664619142179 22.327136078592069 -1.224646799147353e-16 -1 -1.4997597826618571e-32 1.224646799147353e-16 0 -1 forward_v I I I I #
name_attrib-gen-attrib $-1 -1 $297 $-1 $151 0 0 0 0 1 1 1 1 1 1 1 0 1 0 0 1 0 1 @4 bbox #
straight-curve $-1 -1 -1 $-1 -24.000000000000004 294.32664619142179 44.656797626447521 1.224646799147353e-16 0 -1 I I #
coedge $-1 -1 -1 $-1 $238 $237 $152 $225 forward $220 $-1 #
edge $298 -1 -1 $-1 $230 0 $227 48 $152 $299 forward @7 unknown T -24.000000000000004 291.32664619142179 44.656797626447513 23.999999999999996 291.32664619142179 44.656797626447521 #
name_attrib-gen-attrib $-1 -1 $300 $-1 $153 0 0 0 0 1 1 1 1 1 1 1 0 1 0 0 1 0 1 @4 bbox #
vertex $301 -1 -1 $-1 $225 $302 #
straight-curve $-1 -1 -1 $-1 -24.000000000000004 291.32664619142179 44.656797626447521 1.224646799147353e-16 1 1.4997597826618571e-32 I I #
name_attrib-gen-attrib $-1 -1 $303 $-1 $155 0 0 0 0 1 1 1 1 1 1 1 0 1 0 0 1 0 1 @4 bbox #
vertex $304 -1 -1 $-1 $241 $305 #
straight-curve $-1 -1 -1 $-1 23.999999999999996 291.32664619142179 44.656797626447521 1.224646799147353e-16 1 1.4997597826618571e-32 I I #
name_attrib-gen-attrib $-1 -1 $306 $156 $96 2 1 1 1 1 1 1 1 1 1 1 1 1 1 0 1 1 1 @3 eif #
name_attrib-gen-attrib $-1 -1 $307 $-1 $157 0 0 0 0 1 1 1 1 1 1 1 0 1 0 0 1 0 1 @4 bbox #
point $-1 -1 -1 $-1 23.999999999999996 294.32664619142179 44.656797626447521 #
name_attrib-gen-attrib $-1 -1 $308 $-1 $158 0 0 0 0 1 1 1 1 1 1 1 0 1 0 0 1 0 1 @4 bbox #
point $-1 -1 -1 $-1 -24.000000000000004 294.32664619142179 44.656797626447521 #
coedge $-1 -1 -1 $-1 $224 $160 $162 $241 forward $220 $-1 #
coedge $-1 -1 -1 $-1 $160 $224 $166 $245 forward $220 $-1 #
name_attrib-gen-attrib $-1 -1 $309 $-1 $161 0 0 0 0 1 1 1 1 1 1 1 0 1 0 0 1 0 1 @4 bbox #
straight-curve $-1 -1 -1 $-1 24.000000000000011 291.32664619142179 -44.661848564974285 -1 1.224646799147353e-16 -1.224646799147353e-16 I I #
edge $310 -1 -1 $-1 $164 -44.659323095710903 $230 44.659323095710903 $162 $311 forward @7 unknown T 23.999999999999996 291.32664619142179 -44.661848564974285 24.000000000000011 291.32664619142179 44.656797626447521 #
name_attrib-gen-attrib $-1 -1 $312 $163 $99 2 1 1 1 1 1 1 1 1 1 1 1 1 1 0 1 1 1 @3 eif #
name_attrib-gen-attrib $-1 -1 $313 $-1 $164 0 0 0 0 1 1 1 1 1 1 1 0 1 0 0 1 0 1 @4 bbox #
point $-1 -1 -1 $-1 24.000000000000011 291.32664619142179 -44.661848564974285 #
edge $314 -1 -1 $-1 $227 0 $168 89.318646191421806 $166 $315 forward @7 unknown T -24.000000000000004 291.32664619142179 -44.661848564974285 -23.999999999999989 291.32664619142179 44.656797626447521 #
name_attrib-gen-attrib $-1 -1 $316 $167 $101 2 1 1 1 1 1 1 1 1 1 1 1 1 1 0 1 1 1 @3 eif #
name_attrib-gen-attrib $-1 -1 $317 $-1 $168 0 0 0 0 1 1 1 1 1 1 1 0 1 0 0 1 0 1 @4 bbox #
point $-1 -1 -1 $-1 -23.999999999999989 291.32664619142179 -44.661848564974285 #
name_attrib-gen-attrib $-1 -1 $318 $-1 $170 0 0 0 0 1 1 1 1 1 1 1 0 1 0 0 1 0 1 @4 bbox #
straight-curve $-1 -1 -1 $-1 24.000000000000004 294.32664619142179 -0.0025254692633794257 1.224646799147353e-16 0 -1 I I #
integer_attrib-name_attrib-gen-attrib $-1 -1 $-1 $171 $62 2 1 1 1 1 1 1 1 1 1 1 1 1 1 0 1 1 1 @3 pid 27 #
integer_attrib-name_attrib-gen-attrib $-1 -1 $-1 $172 $106 2 1 1 1 1 1 1 1 1 1 1 1 1 1 0 1 1 1 @3 pid 19 #
integer_attrib-name_attrib-gen-attrib $-1 -1 $-1 $174 $107 2 1 1 1 1 1 1 1 1 1 1 1 1 1 0 1 1 1 @3 pid 20 #
real_attrib-name_attrib-gen-attrib $-1 -1 $319 $176 $1 0 0 0 0 1 1 1 1 1 1 1 0 1 0 0 1 0 1 @8 bboxxmax 24.000000000000011 #
integer_attrib-name_attrib-gen-attrib $-1 -1 $-1 $178 $67 2 1 1 1 1 1 1 1 1 1 1 1 1 1 0 1 1 1 @3 pid 15 #
integer_attrib-name_attrib-gen-attrib $-1 -1 $320 $179 $113 2 0 0 1 1 1 1 1 1 1 1 1 1 1 0 1 1 1 @3 fif 0 #
loop $-1 -1 -1 $-1 $-1 $321 $113 T -24.000000000000007 270.50799999999998 -44.661848564974292 24.000000000000007 270.50799999999998 44.656797626447521 unknown #
coedge $-1 -1 -1 $-1 $322 $182 $323 $324 forward $114 $-1 #
coedge $-1 -1 -1 $-1 $182 $322 $325 $326 reversed $114 $-1 #
coedge $327 -1 -1 $-1 $328 $209 $182 $261 forward $136 $-1 #
edge $329 -1 -1 $-1 $330 0 $331 48 $182 $332 forward @7 unknown T -23.999999999999989 291.32664619142179 -44.661848564974292 24.000000000000011 291.32664619142179 -44.661848564974285 #
coedge $-1 -1 -1 $-1 $189 $197 $184 $263 forward $180 $-1 #
edge $333 -1 -1 $-1 $265 -21 $192 21 $262 $334 forward @7 unknown T -21.000000000000004 270.50799999999998 41.656797626447521 20.999999999999996 270.50799999999998 41.656797626447521 #
name_attrib-gen-attrib $-1 -1 $335 $-1 $185 0 0 0 0 1 1 1 1 1 1 1 0 1 0 0 1 0 1 @4 bbox #
vertex $336 -1 -1 $-1 $263 $337 #
intcurve-curve $-1 -1 -1 $-1 forward { exactcur 3 full nubs 1 open 2 
	0 1 1 1 
	-21 291.32664619142179 41.656797626447521 
	-21.000000000000004 270.50799999999998 41.656797626447521 
	0 
	null_surface 
	null_surface 
	nullbs 
	nullbs 
	-1 
	-1 
	I I 
	0 
	0 
	0 
	
	-1 
	none F F 1 F 0 } I I #
name_attrib-gen-attrib $-1 -1 $338 $186 $120 2 1 1 1 1 1 1 1 1 1 1 1 1 1 0 1 1 1 @3 eif #
name_attrib-gen-attrib $-1 -1 $339 $-1 $187 0 0 0 0 1 1 1 1 1 1 1 0 1 0 0 1 0 1 @4 bbox #
point $-1 -1 -1 $-1 -21 291.32664619142179 41.656797626447521 #
name_attrib-gen-attrib $-1 -1 $340 $-1 $190 0 0 0 0 1 1 1 1 1 1 1 0 1 0 0 1 0 1 @4 bbox #
straight-curve $-1 -1 -1 $-1 20.999999999999996 270.50799999999998 21.577136078592073 1.224646799147353e-16 2.1913377791884242e-31 -1 I I #
name_attrib-gen-attrib $-1 -1 $341 $191 $122 2 1 1 1 1 1 1 1 1 1 1 1 1 1 0 1 1 1 @3 eif #
name_attrib-gen-attrib $-1 -1 $342 $-1 $192 0 0 0 0 1 1 1 1 1 1 1 0 1 0 0 1 0 1 @4 bbox #
point $-1 -1 -1 $-1 20.999999999999996 270.50799999999998 41.656797626447521 #
integer_attrib-name_attrib-gen-attrib $-1 -1 $-1 $194 $74 2 1 1 1 1 1 1 1 1 1 1 1 1 1 0 1 1 1 @3 pid 49 #
integer_attrib-name_attrib-gen-attrib $-1 -1 $-1 $195 $124 2 1 1 1 1 1 1 1 1 1 1 1 1 1 0 1 1 1 @3 pid 37 #
name_attrib-gen-attrib $-1 -1 $343 $198 $127 2 1 1 1 1 1 1 1 1 1 1 1 1 1 0 1 1 1 @3 eif #
name_attrib-gen-attrib $-1 -1 $344 $-1 $200 0 0 0 0 1 1 1 1 1 1 1 0 1 0 0 1 0 1 @4 bbox #
straight-curve $-1 -1 -1 $-1 -21.000000000000004 270.50799999999998 21.577136078592066 -1.224646799147353e-16 -2.1913377791884242e-31 1 I I #
integer_attrib-name_attrib-gen-attrib $-1 -1 $-1 $201 $77 2 1 1 1 1 1 1 1 1 1 1 1 1 1 0 1 1 1 @3 pid 11 #
integer_attrib-name_attrib-gen-attrib $-1 -1 $-1 $202 $130 2 1 1 1 1 1 1 1 1 1 1 1 1 1 0 1 1 1 @3 pid 35 #
integer_attrib-name_attrib-gen-attrib $-1 -1 $-1 $204 $78 2 1 1 1 1 1 1 1 1 1 1 1 1 1 0 1 1 1 @3 pid 9 #
integer_attrib-name_attrib-gen-attrib $-1 -1 $-1 $205 $133 2 1 1 1 1 1 1 1 1 1 1 1 1 1 0 1 1 1 @3 pid 36 #
name_attrib-gen-attrib $-1 -1 $345 $207 $135 2 1 1 1 1 1 1 1 1 1 1 1 1 1 0 1 1 1 @3 eif #
sti_rel_attr-sg-attrib $-1 -1 $-1 $-1 $209 1 1 1 1 1 1 1 1 1 1 1 1 1 1 0 1 1 1 #
coedge $346 -1 -1 $-1 $209 $328 $347 $348 reversed $136 $-1 #
coedge $-1 -1 -1 $-1 $349 $323 $209 $288 forward $292 $-1 #
edge $350 -1 -1 $-1 $330 -44.659323095710903 $351 44.659323095710903 $287 $352 forward @7 unknown T 23.999999999999996 291.32664619142179 -44.661848564974285 24.000000000000011 291.32664619142179 44.656797626447521 #
integer_attrib-name_attrib-gen-attrib $-1 -1 $353 $210 $137 2 0 0 1 1 1 1 1 1 1 1 1 1 1 0 1 1 1 @3 fif 0 #
name_attrib-gen-attrib $-1 -1 $354 $-1 $211 0 0 0 0 1 1 1 1 1 1 1 0 1 0 0 1 0 1 @4 bbox #
face $355 -1 -1 $-1 $356 $357 $8 $-1 $358 forward single T -24.000000000000007 270.50799999999998 44.656797626447513 23.999999999999996 291.32664619142179 44.656797626447521 F #
loop $-1 -1 -1 $-1 $-1 $287 $211 T 23.999999999999993 270.50799999999998 -44.661848564974285 24.000000000000011 291.32664619142179 44.656797626447521 unknown #
plane-surface $-1 -1 -1 $-1 24 280.91732309571091 22.327136078592073 1 -1.224646799147353e-16 1.224646799147353e-16 -1.224646799147353e-16 0 1 forward_v I I I I #
real_attrib-name_attrib-gen-attrib $-1 -1 $359 $216 $2 0 0 0 0 1 1 1 1 1 1 1 0 1 0 0 1 0 1 @8 bboxxmax 24.000000000000011 #
integer_attrib-name_attrib-gen-attrib $-1 -1 $-1 $218 $89 2 1 1 1 1 1 1 1 1 1 1 1 1 1 0 1 1 1 @3 pid 20 #
integer_attrib-name_attrib-gen-attrib $-1 -1 $360 $219 $147 2 0 0 1 1 1 1 1 1 1 1 1 1 1 0 1 1 1 @3 fif 0 #
name_attrib-gen-attrib $-1 -1 $361 $222 $151 2 1 1 1 1 1 1 1 1 1 1 1 1 1 0 1 1 1 @3 eif #
name_attrib-gen-attrib $-1 -1 $362 $-1 $225 0 0 0 0 1 1 1 1 1 1 1 0 1 0 0 1 0 1 @4 bbox #
straight-curve $-1 -1 -1 $-1 23.999999999999996 291.32664619142179 44.656797626447521 -1 1.224646799147353e-16 -1.224646799147353e-16 I I #
name_attrib-gen-attrib $-1 -1 $363 $226 $153 2 1 1 1 1 1 1 1 1 1 1 1 1 1 0 1 1 1 @3 eif #
name_attrib-gen-attrib $-1 -1 $364 $-1 $227 0 0 0 0 1 1 1 1 1 1 1 0 1 0 0 1 0 1 @4 bbox #
point $-1 -1 -1 $-1 -24.000000000000004 291.32664619142179 44.656797626447521 #
name_attrib-gen-attrib $-1 -1 $365 $229 $155 2 1 1 1 1 1 1 1 1 1 1 1 1 1 0 1 1 1 @3 eif #
name_attrib-gen-attrib $-1 -1 $366 $-1 $230 0 0 0 0 1 1 1 1 1 1 1 0 1 0 0 1 0 1 @4 bbox #
point $-1 -1 -1 $-1 23.999999999999996 291.32664619142179 44.656797626447521 #
integer_attrib-name_attrib-gen-attrib $-1 -1 $-1 $232 $96 2 1 1 1 1 1 1 1 1 1 1 1 1 1 0 1 1 1 @3 pid 39 #
integer_attrib-name_attrib-gen-attrib $-1 -1 $-1 $233 $157 2 1 1 1 1 1 1 1 1 1 1 1 1 1 0 1 1 1 @3 pid 27 #
integer_attrib-name_attrib-gen-attrib $-1 -1 $-1 $235 $158 2 1 1 1 1 1 1 1 1 1 1 1 1 1 0 1 1 1 @3 pid 28 #
name_attrib-gen-attrib $-1 -1 $367 $239 $161 2 1 1 1 1 1 1 1 1 1 1 1 1 1 0 1 1 1 @3 eif #
name_attrib-gen-attrib $-1 -1 $368 $-1 $241 0 0 0 0 1 1 1 1 1 1 1 0 1 0 0 1 0 1 @4 bbox #
straight-curve $-1 -1 -1 $-1 24.000000000000004 291.32664619142179 -0.0025254692633789539 -1.224646799147353e-16 0 1 I I #
integer_attrib-name_attrib-gen-attrib $-1 -1 $-1 $242 $99 2 1 1 1 1 1 1 1 1 1 1 1 1 1 0 1 1 1 @3 pid 30 #
integer_attrib-name_attrib-gen-attrib $-1 -1 $-1 $243 $164 2 1 1 1 1 1 1 1 1 1 1 1 1 1 0 1 1 1 @3 pid 22 #
name_attrib-gen-attrib $-1 -1 $369 $-1 $245 0 0 0 0 1 1 1 1 1 1 1 0 1 0 0 1 0 1 @4 bbox #
straight-curve $-1 -1 -1 $-1 -24.000000000000004 291.32664619142179 44.656797626447521 1.224646799147353e-16 0 -1 I I #
integer_attrib-name_attrib-gen-attrib $-1 -1 $-1 $246 $101 2 1 1 1 1 1 1 1 1 1 1 1 1 1 0 1 1 1 @3 pid 28 #
integer_attrib-name_attrib-gen-attrib $-1 -1 $-1 $247 $168 2 1 1 1 1 1 1 1 1 1 1 1 1 1 0 1 1 1 @3 pid 21 #
name_attrib-gen-attrib $-1 -1 $370 $249 $170 2 1 1 1 1 1 1 1 1 1 1 1 1 1 0 1 1 1 @3 eif #
real_attrib-name_attrib-gen-attrib $-1 -1 $371 $254 $1 0 0 0 0 1 1 1 1 1 1 1 0 1 0 0 1 0 1 @8 bboxxmin -24.000000000000007 #
integer_attrib-name_attrib-gen-attrib $-1 -1 $-1 $256 $113 2 1 1 1 1 1 1 1 1 1 1 1 1 1 0 1 1 1 @3 pid 18 #
coedge $372 -1 -1 $-1 $373 $374 $375 $376 reversed $257 $-1 #
coedge $-1 -1 -1 $-1 $259 $258 $374 $377 forward $114 $-1 #
coedge $-1 -1 -1 $-1 $287 $375 $258 $324 reversed $292 $-1 #
edge $378 -1 -1 $-1 $330 0 $379 1 $258 $380 forward @7 unknown T 24.000000000000007 270.50799999999998 -44.661848564974285 24.000000000000011 291.32664619142179 -44.661848564974285 #
coedge $-1 -1 -1 $-1 $381 $382 $259 $326 forward $383 $-1 #
edge $384 -1 -1 $-1 $331 0 $385 1 $325 $386 forward @7 unknown T -23.999999999999993 270.50799999999998 -44.661848564974285 -23.999999999999989 291.32664619142179 -44.661848564974285 #
sti_rel_attr-sg-attrib $-1 -1 $-1 $-1 $260 1 1 1 1 1 1 1 1 1 1 1 1 1 1 0 1 1 1 #
coedge $387 -1 -1 $-1 $286 $260 $382 $388 forward $136 $-1 #
name_attrib-gen-attrib $-1 -1 $389 $-1 $261 0 0 0 0 1 1 1 1 1 1 1 0 1 0 0 1 0 1 @4 bbox #
vertex $390 -1 -1 $-1 $261 $391 #
vertex $392 -1 -1 $-1 $388 $393 #
straight-curve $-1 -1 -1 $-1 24.000000000000011 291.32664619142179 -44.661848564974285 -1 1.224646799147353e-16 -1.224646799147353e-16 F 0 F 48 #
name_attrib-gen-attrib $-1 -1 $394 $-1 $263 0 0 0 0 1 1 1 1 1 1 1 0 1 0 0 1 0 1 @4 bbox #
straight-curve $-1 -1 -1 $-1 -5.0395836109840904e-15 270.50799999999998 41.656797626447521 1 -1.224646799147353e-16 1.224646799147353e-16 I I #
name_attrib-gen-attrib $-1 -1 $395 $264 $185 2 1 1 1 1 1 1 1 1 1 1 1 1 1 0 1 1 1 @3 eif #
name_attrib-gen-attrib $-1 -1 $396 $-1 $265 0 0 0 0 1 1 1 1 1 1 1 0 1 0 0 1 0 1 @4 bbox #
point $-1 -1 -1 $-1 -21.000000000000004 270.50799999999998 41.656797626447521 #
integer_attrib-name_attrib-gen-attrib $-1 -1 $-1 $267 $120 2 1 1 1 1 1 1 1 1 1 1 1 1 1 0 1 1 1 @3 pid 51 #
integer_attrib-name_attrib-gen-attrib $-1 -1 $-1 $268 $187 2 1 1 1 1 1 1 1 1 1 1 1 1 1 0 1 1 1 @3 pid 39 #
name_attrib-gen-attrib $-1 -1 $397 $270 $190 2 1 1 1 1 1 1 1 1 1 1 1 1 1 0 1 1 1 @3 eif #
integer_attrib-name_attrib-gen-attrib $-1 -1 $-1 $272 $122 2 1 1 1 1 1 1 1 1 1 1 1 1 1 0 1 1 1 @3 pid 21 #
integer_attrib-name_attrib-gen-attrib $-1 -1 $-1 $273 $192 2 1 1 1 1 1 1 1 1 1 1 1 1 1 0 1 1 1 @3 pid 38 #
integer_attrib-name_attrib-gen-attrib $-1 -1 $-1 $277 $127 2 1 1 1 1 1 1 1 1 1 1 1 1 1 0 1 1 1 @3 pid 48 #
name_attrib-gen-attrib $-1 -1 $398 $278 $200 2 1 1 1 1 1 1 1 1 1 1 1 1 1 0 1 1 1 @3 eif #
integer_attrib-name_attrib-gen-attrib $-1 -1 $-1 $284 $135 2 1 1 1 1 1 1 1 1 1 1 1 1 1 0 1 1 1 @3 pid 53 #
sti_rel_attr-sg-attrib $-1 -1 $-1 $-1 $286 1 1 1 1 1 1 1 1 1 1 1 1 1 1 0 1 1 1 #
coedge $-1 -1 -1 $-1 $399 $400 $286 $348 forward $357 $-1 #
edge $401 -1 -1 $-1 $351 0 $402 48 $347 $403 forward @7 unknown T -24.000000000000004 291.32664619142179 44.656797626447513 23.999999999999996 291.32664619142179 44.656797626447521 #
coedge $-1 -1 -1 $-1 $375 $287 $400 $404 forward $292 $-1 #
name_attrib-gen-attrib $-1 -1 $405 $-1 $288 0 0 0 0 1 1 1 1 1 1 1 0 1 0 0 1 0 1 @4 bbox #
vertex $406 -1 -1 $-1 $348 $407 #
straight-curve $-1 -1 -1 $-1 24.000000000000004 291.32664619142179 -0.0025254692633789539 -1.224646799147353e-16 0 1 F -44.659323095710903 F 44.659323095710903 #
integer_attrib-name_attrib-gen-attrib $-1 -1 $-1 $289 $137 2 1 1 1 1 1 1 1 1 1 1 1 1 1 0 1 1 1 @3 pid 19 #
integer_attrib-name_attrib-gen-attrib $-1 -1 $408 $290 $211 2 0 0 1 1 1 1 1 1 1 1 1 1 1 0 1 1 1 @3 fif 0 #
name_attrib-gen-attrib $-1 -1 $409 $-1 $291 0 0 0 0 1 1 1 1 1 1 1 0 1 0 0 1 0 1 @4 bbox #
face $410 -1 -1 $-1 $-1 $383 $8 $-1 $411 forward single T -24.000000000000007 270.50799999999998 -44.661848564974285 -23.999999999999989 291.32664619142179 44.656797626447521 F #
loop $-1 -1 -1 $-1 $-1 $347 $291 T -24.000000000000007 270.50799999999998 44.656797626447513 23.999999999999996 291.32664619142179 44.656797626447521 unknown #
plane-surface $-1 -1 -1 $-1 -4.1322032296829992e-15 280.91732309571091 44.656797626447521 -1.224646799147353e-16 0 1 -1 1.224646799147353e-16 -1.224646799147353e-16 forward_v I I I I #
real_attrib-name_attrib-gen-attrib $-1 -1 $412 $294 $2 0 0 0 0 1 1 1 1 1 1 1 0 1 0 0 1 0 1 @8 bboxxmin -24.000000000000004 #
integer_attrib-name_attrib-gen-attrib $-1 -1 $-1 $296 $147 2 1 1 1 1 1 1 1 1 1 1 1 1 1 0 1 1 1 @3 pid 21 #
integer_attrib-name_attrib-gen-attrib $-1 -1 $-1 $297 $151 2 1 1 1 1 1 1 1 1 1 1 1 1 1 0 1 1 1 @3 pid 43 #
name_attrib-gen-attrib $-1 -1 $413 $298 $225 2 1 1 1 1 1 1 1 1 1 1 1 1 1 0 1 1 1 @3 eif #
integer_attrib-name_attrib-gen-attrib $-1 -1 $-1 $300 $153 2 1 1 1 1 1 1 1 1 1 1 1 1 1 0 1 1 1 @3 pid 40 #
integer_attrib-name_attrib-gen-attrib $-1 -1 $-1 $301 $227 2 1 1 1 1 1 1 1 1 1 1 1 1 1 0 1 1 1 @3 pid 29 #
integer_attrib-name_attrib-gen-attrib $-1 -1 $-1 $303 $155 2 1 1 1 1 1 1 1 1 1 1 1 1 1 0 1 1 1 @3 pid 42 #
integer_attrib-name_attrib-gen-attrib $-1 -1 $-1 $304 $230 2 1 1 1 1 1 1 1 1 1 1 1 1 1 0 1 1 1 @3 pid 30 #
integer_attrib-name_attrib-gen-attrib $-1 -1 $-1 $309 $161 2 1 1 1 1 1 1 1 1 1 1 1 1 1 0 1 1 1 @3 pid 29 #
name_attrib-gen-attrib $-1 -1 $414 $310 $241 2 1 1 1 1 1 1 1 1 1 1 1 1 1 0 1 1 1 @3 eif #
name_attrib-gen-attrib $-1 -1 $415 $314 $245 2 1 1 1 1 1 1 1 1 1 1 1 1 1 0 1 1 1 @3 eif #
integer_attrib-name_attrib-gen-attrib $-1 -1 $-1 $318 $170 2 1 1 1 1 1 1 1 1 1 1 1 1 1 0 1 1 1 @3 pid 37 #
integer_attrib-name_attrib-gen-attrib $-1 -1 $416 $319 $1 0 0 0 0 1 1 1 1 1 1 1 0 1 0 0 1 0 1 @6 bboxnv 16 #
sti_rel_attr-sg-attrib $-1 -1 $-1 $-1 $321 1 1 1 1 1 1 1 1 1 1 1 1 1 1 0 1 1 1 #
coedge $417 -1 -1 $-1 $418 $321 $419 $420 forward $257 $-1 #
coedge $421 -1 -1 $-1 $321 $418 $322 $377 reversed $257 $-1 #
coedge $-1 -1 -1 $-1 $323 $349 $321 $376 forward $292 $-1 #
edge $422 -1 -1 $-1 $423 -44.659323095710903 $379 44.659323095710903 $375 $424 forward @7 unknown T 23.999999999999993 270.50799999999998 -44.661848564974285 24.000000000000007 270.50799999999998 44.656797626447521 #
edge $425 -1 -1 $-1 $379 0 $385 48 $322 $426 forward @7 unknown T -23.999999999999993 270.50799999999998 -44.661848564974292 24.000000000000007 270.50799999999998 -44.661848564974285 #
name_attrib-gen-attrib $-1 -1 $427 $-1 $324 0 0 0 0 1 1 1 1 1 1 1 0 1 0 0 1 0 1 @4 bbox #
vertex $428 -1 -1 $-1 $377 $429 #
intcurve-curve $-1 -1 -1 $-1 forward { exactcur 4 full nubs 1 open 2 
	0 1 1 1 
	24.000000000000011 291.32664619142179 -44.661848564974285 
	24.000000000000007 270.50799999999998 -44.661848564974285 
	0 
	null_surface 
	null_surface 
	nullbs 
	nullbs 
	-1 
	-1 
	I I 
	0 
	0 
	0 
	
	-1 
	none F F 1 F 0 } I I #
coedge $-1 -1 -1 $-1 $430 $325 $418 $431 reversed $383 $-1 #
coedge $-1 -1 -1 $-1 $325 $430 $328 $388 reversed $383 $-1 #
loop $-1 -1 -1 $-1 $-1 $382 $356 T -24.000000000000007 270.50799999999998 -44.661848564974285 -23.999999999999989 291.32664619142179 44.656797626447521 unknown #
name_attrib-gen-attrib $-1 -1 $432 $-1 $326 0 0 0 0 1 1 1 1 1 1 1 0 1 0 0 1 0 1 @4 bbox #
vertex $433 -1 -1 $-1 $431 $434 #
intcurve-curve $-1 -1 -1 $-1 forward { exactcur 5 full nubs 1 open 2 
	0 1 1 1 
	-23.999999999999989 291.32664619142179 -44.661848564974285 
	-23.999999999999993 270.50799999999998 -44.661848564974285 
	0 
	null_surface 
	null_surface 
	nullbs 
	nullbs 
	-1 
	-1 
	I I 
	0 
	0 
	0 
	
	-1 
	none F F 1 F 0 } I I #
sti_rel_attr-sg-attrib $-1 -1 $-1 $-1 $328 1 1 1 1 1 1 1 1 1 1 1 1 1 1 0 1 1 1 #
edge $435 -1 -1 $-1 $331 0 $402 89.318646191421806 $382 $436 forward @7 unknown T -24.000000000000004 291.32664619142179 -44.661848564974285 -23.999999999999989 291.32664619142179 44.656797626447521 #
name_attrib-gen-attrib $-1 -1 $437 $329 $261 2 1 1 1 1 1 1 1 1 1 1 1 1 1 0 1 1 1 @3 eif #
name_attrib-gen-attrib $-1 -1 $438 $-1 $330 0 0 0 0 1 1 1 1 1 1 1 0 1 0 0 1 0 1 @4 bbox #
point $-1 -1 -1 $-1 24.000000000000011 291.32664619142179 -44.661848564974285 #
name_attrib-gen-attrib $-1 -1 $439 $-1 $331 0 0 0 0 1 1 1 1 1 1 1 0 1 0 0 1 0 1 @4 bbox #
point $-1 -1 -1 $-1 -23.999999999999989 291.32664619142179 -44.661848564974285 #
name_attrib-gen-attrib $-1 -1 $440 $333 $263 2 1 1 1 1 1 1 1 1 1 1 1 1 1 0 1 1 1 @3 eif #
integer_attrib-name_attrib-gen-attrib $-1 -1 $-1 $335 $185 2 1 1 1 1 1 1 1 1 1 1 1 1 1 0 1 1 1 @3 pid 23 #
integer_attrib-name_attrib-gen-attrib $-1 -1 $-1 $336 $265 2 1 1 1 1 1 1 1 1 1 1 1 1 1 0 1 1 1 @3 pid 40 #
integer_attrib-name_attrib-gen-attrib $-1 -1 $-1 $340 $190 2 1 1 1 1 1 1 1 1 1 1 1 1 1 0 1 1 1 @3 pid 50 #
integer_attrib-name_attrib-gen-attrib $-1 -1 $-1 $344 $200 2 1 1 1 1 1 1 1 1 1 1 1 1 1 0 1 1 1 @3 pid 54 #
coedge $-1 -1 -1 $-1 $419 $347 $430 $441 forward $357 $-1 #
coedge $-1 -1 -1 $-1 $347 $419 $349 $404 reversed $357 $-1 #
name_attrib-gen-attrib $-1 -1 $442 $-1 $348 0 0 0 0 1 1 1 1 1 1 1 0 1 0 0 1 0 1 @4 bbox #
vertex $443 -1 -1 $-1 $388 $444 #
straight-curve $-1 -1 -1 $-1 23.999999999999996 291.32664619142179 44.656797626447521 -1 1.224646799147353e-16 -1.224646799147353e-16 F 0 F 48 #
edge $445 -1 -1 $-1 $351 0 $423 1 $400 $446 forward @7 unknown T 23.999999999999993 270.50799999999998 44.656797626447521 23.999999999999996 291.32664619142179 44.656797626447521 #
name_attrib-gen-attrib $-1 -1 $447 $350 $288 2 1 1 1 1 1 1 1 1 1 1 1 1 1 0 1 1 1 @3 eif #
name_attrib-gen-attrib $-1 -1 $448 $-1 $351 0 0 0 0 1 1 1 1 1 1 1 0 1 0 0 1 0 1 @4 bbox #
point $-1 -1 -1 $-1 23.999999999999996 291.32664619142179 44.656797626447521 #
integer_attrib-name_attrib-gen-attrib $-1 -1 $-1 $354 $211 2 1 1 1 1 1 1 1 1 1 1 1 1 1 0 1 1 1 @3 pid 20 #
integer_attrib-name_attrib-gen-attrib $-1 -1 $449 $355 $291 2 0 0 1 1 1 1 1 1 1 1 1 1 1 0 1 1 1 @3 fif 0 #
name_attrib-gen-attrib $-1 -1 $450 $-1 $356 0 0 0 0 1 1 1 1 1 1 1 0 1 0 0 1 0 1 @4 bbox #
plane-surface $-1 -1 -1 $-1 -24 280.91732309571091 22.327136078592066 -1 1.224646799147353e-16 -1.224646799147353e-16 1.224646799147353e-16 0 -1 forward_v I I I I #
integer_attrib-name_attrib-gen-attrib $-1 -1 $451 $359 $2 0 0 0 0 1 1 1 1 1 1 1 0 1 0 0 1 0 1 @6 bboxnv 8 #
integer_attrib-name_attrib-gen-attrib $-1 -1 $-1 $362 $225 2 1 1 1 1 1 1 1 1 1 1 1 1 1 0 1 1 1 @3 pid 41 #
integer_attrib-name_attrib-gen-attrib $-1 -1 $-1 $368 $241 2 1 1 1 1 1 1 1 1 1 1 1 1 1 0 1 1 1 @3 pid 50 #
integer_attrib-name_attrib-gen-attrib $-1 -1 $-1 $369 $245 2 1 1 1 1 1 1 1 1 1 1 1 1 1 0 1 1 1 @3 pid 45 #
integer_attrib-name_attrib-gen-attrib $-1 -1 $452 $371 $1 0 0 0 0 1 1 1 1 1 1 1 0 1 0 0 1 0 1 @6 bboxne 24 #
sti_rel_attr-sg-attrib $-1 -1 $-1 $-1 $373 1 1 1 1 1 1 1 1 1 1 1 1 1 1 0 1 1 1 #
coedge $453 -1 -1 $-1 $374 $373 $381 $431 forward $257 $-1 #
coedge $-1 -1 -1 $-1 $400 $399 $373 $420 reversed $357 $-1 #
edge $454 -1 -1 $-1 $423 0 $455 48 $419 $456 forward @7 unknown T -24.000000000000007 270.50799999999998 44.656797626447513 23.999999999999993 270.50799999999998 44.656797626447521 #
sti_rel_attr-sg-attrib $-1 -1 $-1 $-1 $374 1 1 1 1 1 1 1 1 1 1 1 1 1 1 0 1 1 1 #
name_attrib-gen-attrib $-1 -1 $457 $-1 $376 0 0 0 0 1 1 1 1 1 1 1 0 1 0 0 1 0 1 @4 bbox #
vertex $458 -1 -1 $-1 $420 $459 #
straight-curve $-1 -1 -1 $-1 24 270.50799999999998 -0.0025254692633794257 1.224646799147353e-16 0 -1 F -44.659323095710903 F 44.659323095710903 #
name_attrib-gen-attrib $-1 -1 $460 $-1 $377 0 0 0 0 1 1 1 1 1 1 1 0 1 0 0 1 0 1 @4 bbox #
straight-curve $-1 -1 -1 $-1 24.000000000000007 270.50799999999998 -44.661848564974285 -1 1.224646799147353e-16 -1.224646799147353e-16 F 0 F 48 #
name_attrib-gen-attrib $-1 -1 $461 $378 $324 2 1 1 1 1 1 1 1 1 1 1 1 1 1 0 1 1 1 @3 eif #
name_attrib-gen-attrib $-1 -1 $462 $-1 $379 0 0 0 0 1 1 1 1 1 1 1 0 1 0 0 1 0 1 @4 bbox #
point $-1 -1 -1 $-1 24.000000000000007 270.50799999999998 -44.661848564974285 #
coedge $-1 -1 -1 $-1 $382 $381 $399 $441 reversed $383 $-1 #
edge $463 -1 -1 $-1 $455 0 $385 89.318646191421806 $381 $464 forward @7 unknown T -24.000000000000007 270.50799999999998 -44.661848564974285 -23.999999999999993 270.50799999999998 44.656797626447521 #
name_attrib-gen-attrib $-1 -1 $465 $384 $326 2 1 1 1 1 1 1 1 1 1 1 1 1 1 0 1 1 1 @3 eif #
name_attrib-gen-attrib $-1 -1 $466 $-1 $385 0 0 0 0 1 1 1 1 1 1 1 0 1 0 0 1 0 1 @4 bbox #
point $-1 -1 -1 $-1 -23.999999999999993 270.50799999999998 -44.661848564974285 #
name_attrib-gen-attrib $-1 -1 $467 $-1 $388 0 0 0 0 1 1 1 1 1 1 1 0 1 0 0 1 0 1 @4 bbox #
straight-curve $-1 -1 -1 $-1 -23.999999999999989 291.32664619142179 -44.661848564974285 -1.224646799147353e-16 0 1 F 0 F 89.318646191421806 #
integer_attrib-name_attrib-gen-attrib $-1 -1 $-1 $389 $261 2 1 1 1 1 1 1 1 1 1 1 1 1 1 0 1 1 1 @3 pid 31 #
integer_attrib-name_attrib-gen-attrib $-1 -1 $-1 $390 $330 2 1 1 1 1 1 1 1 1 1 1 1 1 1 0 1 1 1 @3 pid 21 #
integer_attrib-name_attrib-gen-attrib $-1 -1 $-1 $392 $331 2 1 1 1 1 1 1 1 1 1 1 1 1 1 0 1 1 1 @3 pid 24 #
integer_attrib-name_attrib-gen-attrib $-1 -1 $-1 $394 $263 2 1 1 1 1 1 1 1 1 1 1 1 1 1 0 1 1 1 @3 pid 52 #
edge $468 -1 -1 $-1 $402 0 $455 1 $430 $469 forward @7 unknown T -24.000000000000007 270.50799999999998 44.656797626447521 -24.000000000000004 291.32664619142179 44.656797626447521 #
name_attrib-gen-attrib $-1 -1 $470 $401 $348 2 1 1 1 1 1 1 1 1 1 1 1 1 1 0 1 1 1 @3 eif #
name_attrib-gen-attrib $-1 -1 $471 $-1 $402 0 0 0 0 1 1 1 1 1 1 1 0 1 0 0 1 0 1 @4 bbox #
point $-1 -1 -1 $-1 -24.000000000000004 291.32664619142179 44.656797626447521 #
name_attrib-gen-attrib $-1 -1 $472 $-1 $404 0 0 0 0 1 1 1 1 1 1 1 0 1 0 0 1 0 1 @4 bbox #
intcurve-curve $-1 -1 -1 $-1 forward { exactcur 6 full nubs 1 open 2 
	0 1 1 1 
	23.999999999999996 291.32664619142179 44.656797626447521 
	23.999999999999993 270.50799999999998 44.656797626447521 
	0 
	null_surface 
	null_surface 
	nullbs 
	nullbs 
	-1 
	-1 
	I I 
	0 
	0 
	0 
	
	-1 
	none F F 1 F 0 } I I #
integer_attrib-name_attrib-gen-attrib $-1 -1 $-1 $405 $288 2 1 1 1 1 1 1 1 1 1 1 1 1 1 0 1 1 1 @3 pid 40 #
integer_attrib-name_attrib-gen-attrib $-1 -1 $-1 $406 $351 2 1 1 1 1 1 1 1 1 1 1 1 1 1 0 1 1 1 @3 pid 29 #
integer_attrib-name_attrib-gen-attrib $-1 -1 $-1 $409 $291 2 1 1 1 1 1 1 1 1 1 1 1 1 1 0 1 1 1 @3 pid 21 #
integer_attrib-name_attrib-gen-attrib $-1 -1 $473 $410 $356 2 0 0 1 1 1 1 1 1 1 1 1 1 1 0 1 1 1 @3 fif 0 #
integer_attrib-name_attrib-gen-attrib $-1 -1 $474 $412 $2 0 0 0 0 1 1 1 1 1 1 1 0 1 0 0 1 0 1 @6 bboxne 12 #
integer_attrib-name_attrib-gen-attrib $-1 -1 $475 $416 $1 0 0 0 0 1 1 1 1 1 1 1 0 1 0 0 1 0 1 @6 bboxnf 10 #
sti_rel_attr-sg-attrib $-1 -1 $-1 $-1 $418 1 1 1 1 1 1 1 1 1 1 1 1 1 1 0 1 1 1 #
name_attrib-gen-attrib $-1 -1 $476 $-1 $420 0 0 0 0 1 1 1 1 1 1 1 0 1 0 0 1 0 1 @4 bbox #
vertex $477 -1 -1 $-1 $431 $478 #
straight-curve $-1 -1 -1 $-1 23.999999999999993 270.50799999999998 44.656797626447521 -1 1.224646799147353e-16 -1.224646799147353e-16 F 0 F 48 #
name_attrib-gen-attrib $-1 -1 $479 $422 $376 2 1 1 1 1 1 1 1 1 1 1 1 1 1 0 1 1 1 @3 eif #
name_attrib-gen-attrib $-1 -1 $480 $-1 $423 0 0 0 0 1 1 1 1 1 1 1 0 1 0 0 1 0 1 @4 bbox #
point $-1 -1 -1 $-1 23.999999999999993 270.50799999999998 44.656797626447521 #
name_attrib-gen-attrib $-1 -1 $481 $425 $377 2 1 1 1 1 1 1 1 1 1 1 1 1 1 0 1 1 1 @3 eif #
integer_attrib-name_attrib-gen-attrib $-1 -1 $-1 $427 $324 2 1 1 1 1 1 1 1 1 1 1 1 1 1 0 1 1 1 @3 pid 32 #
integer_attrib-name_attrib-gen-attrib $-1 -1 $-1 $428 $379 2 1 1 1 1 1 1 1 1 1 1 1 1 1 0 1 1 1 @3 pid 18 #
name_attrib-gen-attrib $-1 -1 $482 $-1 $431 0 0 0 0 1 1 1 1 1 1 1 0 1 0 0 1 0 1 @4 bbox #
straight-curve $-1 -1 -1 $-1 -24.000000000000007 270.50799999999998 44.656797626447521 1.224646799147353e-16 0 -1 F 0 F 89.318646191421806 #
integer_attrib-name_attrib-gen-attrib $-1 -1 $-1 $432 $326 2 1 1 1 1 1 1 1 1 1 1 1 1 1 0 1 1 1 @3 pid 34 #
integer_attrib-name_attrib-gen-attrib $-1 -1 $-1 $433 $385 2 1 1 1 1 1 1 1 1 1 1 1 1 1 0 1 1 1 @3 pid 19 #
name_attrib-gen-attrib $-1 -1 $483 $435 $388 2 1 1 1 1 1 1 1 1 1 1 1 1 1 0 1 1 1 @3 eif #
name_attrib-gen-attrib $-1 -1 $484 $-1 $441 0 0 0 0 1 1 1 1 1 1 1 0 1 0 0 1 0 1 @4 bbox #
intcurve-curve $-1 -1 -1 $-1 forward { exactcur 7 full nubs 1 open 2 
	0 1 1 1 
	-24.000000000000004 291.32664619142179 44.656797626447521 
	-24.000000000000007 270.50799999999998 44.656797626447521 
	0 
	null_surface 
	null_surface 
	nullbs 
	nullbs 
	-1 
	-1 
	I I 
	0 
	0 
	0 
	
	-1 
	none F F 1 F 0 } I I #
integer_attrib-name_attrib-gen-attrib $-1 -1 $-1 $442 $348 2 1 1 1 1 1 1 1 1 1 1 1 1 1 0 1 1 1 @3 pid 43 #
integer_attrib-name_attrib-gen-attrib $-1 -1 $-1 $443 $402 2 1 1 1 1 1 1 1 1 1 1 1 1 1 0 1 1 1 @3 pid 32 #
name_attrib-gen-attrib $-1 -1 $485 $445 $404 2 1 1 1 1 1 1 1 1 1 1 1 1 1 0 1 1 1 @3 eif #
integer_attrib-name_attrib-gen-attrib $-1 -1 $-1 $450 $356 2 1 1 1 1 1 1 1 1 1 1 1 1 1 0 1 1 1 @3 pid 22 #
integer_attrib-name_attrib-gen-attrib $-1 -1 $486 $451 $2 0 0 0 0 1 1 1 1 1 1 1 0 1 0 0 1 0 1 @6 bboxnf 6 #
integer_attrib-name_attrib-gen-attrib $-1 -1 $487 $452 $1 2 1 1 1 1 1 1 1 1 1 1 1 1 1 0 1 1 1 @17 object_visibility 0 #
name_attrib-gen-attrib $-1 -1 $488 $454 $420 2 1 1 1 1 1 1 1 1 1 1 1 1 1 0 1 1 1 @3 eif #
name_attrib-gen-attrib $-1 -1 $489 $-1 $455 0 0 0 0 1 1 1 1 1 1 1 0 1 0 0 1 0 1 @4 bbox #
point $-1 -1 -1 $-1 -24.000000000000007 270.50799999999998 44.656797626447521 #
integer_attrib-name_attrib-gen-attrib $-1 -1 $-1 $457 $376 2 1 1 1 1 1 1 1 1 1 1 1 1 1 0 1 1 1 @3 pid 24 #
integer_attrib-name_attrib-gen-attrib $-1 -1 $-1 $458 $423 2 1 1 1 1 1 1 1 1 1 1 1 1 1 0 1 1 1 @3 pid 26 #
integer_attrib-name_attrib-gen-attrib $-1 -1 $-1 $460 $377 2 1 1 1 1 1 1 1 1 1 1 1 1 1 0 1 1 1 @3 pid 25 #
name_attrib-gen-attrib $-1 -1 $490 $463 $431 2 1 1 1 1 1 1 1 1 1 1 1 1 1 0 1 1 1 @3 eif #
integer_attrib-name_attrib-gen-attrib $-1 -1 $-1 $467 $388 2 1 1 1 1 1 1 1 1 1 1 1 1 1 0 1 1 1 @3 pid 30 #
name_attrib-gen-attrib $-1 -1 $491 $468 $441 2 1 1 1 1 1 1 1 1 1 1 1 1 1 0 1 1 1 @3 eif #
integer_attrib-name_attrib-gen-attrib $-1 -1 $-1 $472 $404 2 1 1 1 1 1 1 1 1 1 1 1 1 1 0 1 1 1 @3 pid 44 #
integer_attrib-name_attrib-gen-attrib $-1 -1 $492 $474 $2 2 1 1 1 1 1 1 1 1 1 1 1 1 1 0 1 1 1 @17 object_visibility 0 #
integer_attrib-name_attrib-gen-attrib $-1 -1 $493 $475 $1 2 1 1 1 1 1 1 1 1 1 1 1 1 1 0 1 1 1 @3 noe 24 #
integer_attrib-name_attrib-gen-attrib $-1 -1 $-1 $476 $420 2 1 1 1 1 1 1 1 1 1 1 1 1 1 0 1 1 1 @3 pid 37 #
integer_attrib-name_attrib-gen-attrib $-1 -1 $-1 $477 $455 2 1 1 1 1 1 1 1 1 1 1 1 1 1 0 1 1 1 @3 pid 27 #
integer_attrib-name_attrib-gen-attrib $-1 -1 $-1 $482 $431 2 1 1 1 1 1 1 1 1 1 1 1 1 1 0 1 1 1 @3 pid 38 #
integer_attrib-name_attrib-gen-attrib $-1 -1 $-1 $484 $441 2 1 1 1 1 1 1 1 1 1 1 1 1 1 0 1 1 1 @3 pid 46 #
integer_attrib-name_attrib-gen-attrib $-1 -1 $494 $486 $2 2 1 1 1 1 1 1 1 1 1 1 1 1 1 0 1 1 1 @3 noe 12 #
integer_attrib-name_attrib-gen-attrib $-1 -1 $-1 $487 $1 2 1 1 1 1 1 1 1 1 1 1 1 1 1 0 1 1 1 @3 nof 10 #
integer_attrib-name_attrib-gen-attrib $-1 -1 $-1 $492 $2 2 1 1 1 1 1 1 1 1 1 1 1 1 1 0 1 1 1 @3 nof 6 #
End-of-ACIS-data 