3100 0 2 0           
20 CST MICROWAVE STUDIO 14 ACIS 31.0.1 NT 24 Mon Mar 27 16:46:56 2023 
1 9.9999999999999995e-07 1e-10 
T @77 VKWV6H2KUPK_KZDPV98QVMHBN3RV4H7DW8AMERPC3CDVSR6FKAJMQM5X6CRCNJ63UBNKQRPDUCR3M 
name_attrib-gen-attrib $-1 -1 $-1 $-1 $-1 2 1 1 1 1 1 1 1 1 1 1 1 1 1 1 1 1 1 @17 VirtualBackground #
body $2 -1 -1 $-1 0 $3 $-1 $-1 F #
rgb_color-st-attrib $-1 -1 $4 $-1 $1 2 1 2 1 1 1 1 1 1 1 1 1 1 1 0 1 1 1 0.82745099067687988 0.78431397676467896 0.52941197156906128 #
lump $-1 -1 -1 $-1 $-1 $5 $1 F #
name_attrib-gen-attrib $-1 -1 $6 $2 $1 2 1 1 1 1 1 1 1 1 1 1 1 1 1 0 1 1 1 @27 c0.827451 0.784314 0.529412 #
shell $-1 -1 -1 $-1 $-1 $-1 $7 $-1 $3 F #
integer_attrib-name_attrib-gen-attrib $-1 -1 $8 $4 $1 2 1 1 1 1 1 1 1 1 1 1 1 1 1 0 1 1 1 @4 type 6 #
face $9 -1 -1 $-1 $10 $11 $5 $-1 $12 forward single T -23.999999999999993 270 -44.661848564974292 24.000000000000007 270.50799999999998 -44.661848564974285 F #
name_attrib-gen-attrib $-1 -1 $13 $6 $1 2 1 1 1 1 1 1 1 1 1 1 1 1 1 0 1 1 1 @47 mSelf-Grounded Bow-Tie/G10-FR4_AccuratePlastics #
name_attrib-gen-attrib $-1 -1 $14 $-1 $7 0 0 0 0 1 1 1 1 1 1 1 0 1 0 0 1 0 1 @4 bbox #
face $15 -1 -1 $-1 $16 $17 $5 $-1 $18 forward single T -24.000000000000007 270 -44.661848564974285 -23.999999999999993 270.50799999999998 44.656797626447521 F #
loop $-1 -1 -1 $-1 $-1 $19 $7 T -23.999999999999993 270 -44.661848564974292 24.000000000000007 270.50799999999998 -44.661848564974285 unknown #
plane-surface $-1 -1 -1 $-1 5.5314017655216662e-15 270.50799999999998 -44.661848564974285 1.224646799147353e-16 -1.9410947470989497e-31 -1 -1 1.224646799147353e-16 -1.224646799147353e-16 reverse_v I I I I #
name_attrib-gen-attrib $-1 -1 $20 $8 $1 2 1 1 1 1 1 1 1 1 1 1 1 1 1 0 1 1 1 @57 nSelf-Grounded Bow-Tie/BuildingBlock:BuildingBlock_Bottom #
integer_attrib-name_attrib-gen-attrib $-1 -1 $21 $9 $7 2 0 0 1 1 1 1 1 1 1 1 1 1 1 0 1 1 1 @3 fif 0 #
name_attrib-gen-attrib $-1 -1 $22 $-1 $10 0 0 0 0 1 1 1 1 1 1 1 0 1 0 0 1 0 1 @4 bbox #
face $23 -1 -1 $-1 $24 $25 $5 $-1 $26 forward single T -24.000000000000007 270 44.656797626447513 23.999999999999993 270.50799999999998 44.656797626447521 F #
loop $-1 -1 -1 $-1 $-1 $27 $10 T -24.000000000000007 270 -44.661848564974285 -23.999999999999993 270.50799999999998 44.656797626447521 unknown #
plane-surface $-1 -1 -1 $-1 -24.000000000000004 270.50799999999998 22.327136078592066 -1 1.224646799147353e-16 -1.224646799147353e-16 1.224646799147353e-16 0 -1 forward_v I I I I #
coedge $-1 -1 -1 $-1 $28 $29 $30 $31 reversed $11 $-1 #
real_attrib-name_attrib-gen-attrib $-1 -1 $32 $13 $1 0 0 0 0 1 1 1 1 1 1 1 0 1 0 0 1 0 1 @8 bboxzmax 44.656797626447521 #
integer_attrib-name_attrib-gen-attrib $-1 -1 $-1 $14 $7 2 1 1 1 1 1 1 1 1 1 1 1 1 1 0 1 1 1 @3 pid 3 #
integer_attrib-name_attrib-gen-attrib $-1 -1 $33 $15 $10 2 0 0 1 1 1 1 1 1 1 1 1 1 1 0 1 1 1 @3 fif 0 #
name_attrib-gen-attrib $-1 -1 $34 $-1 $16 0 0 0 0 1 1 1 1 1 1 1 0 1 0 0 1 0 1 @4 bbox #
face $35 -1 -1 $-1 $36 $37 $5 $-1 $38 forward single T 23.999999999999993 270 -44.661848564974285 24.000000000000007 270.50799999999998 44.656797626447521 F #
loop $-1 -1 -1 $-1 $-1 $39 $16 T -24.000000000000007 270 44.656797626447513 23.999999999999993 270.50799999999998 44.656797626447521 unknown #
plane-surface $-1 -1 -1 $-1 -5.4069776507282959e-15 270.50799999999998 44.656797626447521 -1.224646799147353e-16 -1.9410947470989497e-31 1 -1 1.224646799147353e-16 -1.224646799147353e-16 forward_v I I I I #
coedge $-1 -1 -1 $-1 $40 $41 $42 $43 reversed $17 $-1 #
coedge $-1 -1 -1 $-1 $44 $19 $41 $45 reversed $11 $-1 #
coedge $-1 -1 -1 $-1 $19 $44 $46 $47 forward $11 $-1 #
coedge $-1 -1 -1 $-1 $48 $42 $19 $31 forward $49 $-1 #
edge $50 -1 -1 $-1 $51 -48 $52 0 $19 $53 forward @7 unknown T -23.999999999999993 270 -44.661848564974292 24.000000000000007 270 -44.661848564974285 #
real_attrib-name_attrib-gen-attrib $-1 -1 $54 $20 $1 0 0 0 0 1 1 1 1 1 1 1 0 1 0 0 1 0 1 @8 bboxzmin -44.661848564974285 #
integer_attrib-name_attrib-gen-attrib $-1 -1 $-1 $22 $10 2 1 1 1 1 1 1 1 1 1 1 1 1 1 0 1 1 1 @3 pid 8 #
integer_attrib-name_attrib-gen-attrib $-1 -1 $55 $23 $16 2 0 0 1 1 1 1 1 1 1 1 1 1 1 0 1 1 1 @3 fif 0 #
name_attrib-gen-attrib $-1 -1 $56 $-1 $24 0 0 0 0 1 1 1 1 1 1 1 0 1 0 0 1 0 1 @4 bbox #
face $57 -1 -1 $-1 $58 $49 $5 $-1 $59 forward single T -24.000000000000007 270 -44.661848564974292 24.000000000000007 270 44.656797626447521 F #
loop $-1 -1 -1 $-1 $-1 $60 $24 T 23.999999999999993 270 -44.661848564974285 24.000000000000007 270.50799999999998 44.656797626447521 unknown #
plane-surface $-1 -1 -1 $-1 23.999999999999996 270.50799999999998 22.327136078592073 1 -1.224646799147353e-16 1.224646799147353e-16 -1.224646799147353e-16 0 1 forward_v I I I I #
coedge $-1 -1 -1 $-1 $61 $62 $63 $64 forward $25 $-1 #
coedge $-1 -1 -1 $-1 $65 $27 $62 $66 reversed $17 $-1 #
coedge $-1 -1 -1 $-1 $27 $65 $28 $45 forward $17 $-1 #
coedge $-1 -1 -1 $-1 $30 $63 $27 $43 forward $49 $-1 #
edge $67 -1 -1 $-1 $68 -89.318646191421806 $51 0 $27 $69 forward @7 unknown T -24.000000000000007 270 -44.661848564974285 -23.999999999999993 270 44.656797626447521 #
coedge $-1 -1 -1 $-1 $29 $28 $70 $71 reversed $11 $-1 #
edge $72 -1 -1 $-1 $73 0 $51 0.50799999999999912 $28 $74 forward @7 unknown T -23.999999999999993 270 -44.661848564974285 -23.999999999999993 270.50799999999998 -44.661848564974285 #
coedge $-1 -1 -1 $-1 $75 $60 $29 $47 reversed $37 $-1 #
edge $76 -1 -1 $-1 $77 0 $52 0.50799999999999912 $46 $78 forward @7 unknown T 24.000000000000007 270 -44.661848564974285 24.000000000000007 270.50799999999998 -44.661848564974285 #
coedge $-1 -1 -1 $-1 $63 $30 $60 $79 reversed $49 $-1 #
loop $-1 -1 -1 $-1 $-1 $42 $36 T -24.000000000000007 270 -44.661848564974292 24.000000000000007 270 44.656797626447521 unknown #
name_attrib-gen-attrib $-1 -1 $80 $-1 $31 0 0 0 0 1 1 1 1 1 1 1 0 1 0 0 1 0 1 @4 bbox #
vertex $81 -1 -1 $-1 $45 $82 #
vertex $83 -1 -1 $-1 $47 $84 #
straight-curve $-1 -1 -1 $-1 24.000000000000007 270 -44.661848564974285 1 -1.224646799147353e-16 1.224646799147353e-16 I I #
real_attrib-name_attrib-gen-attrib $-1 -1 $85 $32 $1 0 0 0 0 1 1 1 1 1 1 1 0 1 0 0 1 0 1 @8 bboxymax 270.50799999999998 #
integer_attrib-name_attrib-gen-attrib $-1 -1 $-1 $34 $16 2 1 1 1 1 1 1 1 1 1 1 1 1 1 0 1 1 1 @3 pid 9 #
integer_attrib-name_attrib-gen-attrib $-1 -1 $86 $35 $24 2 0 0 1 1 1 1 1 1 1 1 1 1 1 0 1 1 1 @3 fif 0 #
name_attrib-gen-attrib $-1 -1 $87 $-1 $36 0 0 0 0 1 1 1 1 1 1 1 0 1 0 0 1 0 1 @4 bbox #
face $88 -1 -1 $-1 $-1 $89 $5 $-1 $90 reversed single T -24.000000000000007 270.50799999999998 -44.661848564974292 24.000000000000007 270.50799999999998 44.656797626447521 F #
plane-surface $-1 -1 -1 $-1 24 270 -0.0025254692633789539 -1.224646799147353e-16 -1 -2.0910707253651355e-31 1.224646799147353e-16 1.9410947470989497e-31 -1 forward_v I I I I #
coedge $-1 -1 -1 $-1 $46 $91 $48 $79 forward $37 $-1 #
coedge $-1 -1 -1 $-1 $92 $39 $91 $93 reversed $25 $-1 #
coedge $-1 -1 -1 $-1 $39 $92 $40 $66 forward $25 $-1 #
coedge $-1 -1 -1 $-1 $42 $48 $39 $64 reversed $49 $-1 #
edge $94 -1 -1 $-1 $68 -48 $95 0 $39 $96 forward @7 unknown T -24.000000000000007 270 44.656797626447513 23.999999999999993 270 44.656797626447521 #
coedge $-1 -1 -1 $-1 $41 $40 $97 $98 forward $17 $-1 #
edge $99 -1 -1 $-1 $100 0 $68 0.50799999999999912 $62 $101 forward @7 unknown T -24.000000000000007 270 44.656797626447521 -24.000000000000007 270.50799999999998 44.656797626447521 #
name_attrib-gen-attrib $-1 -1 $102 $-1 $43 0 0 0 0 1 1 1 1 1 1 1 0 1 0 0 1 0 1 @4 bbox #
vertex $103 -1 -1 $-1 $66 $104 #
straight-curve $-1 -1 -1 $-1 -23.999999999999993 270 -44.661848564974285 1.224646799147353e-16 0 -1 I I #
coedge $-1 -1 -1 $-1 $97 $105 $44 $71 forward $89 $-1 #
edge $106 -1 -1 $-1 $77 0 $73 48 $44 $107 forward @7 unknown T -23.999999999999993 270.50799999999998 -44.661848564974292 24.000000000000007 270.50799999999998 -44.661848564974285 #
name_attrib-gen-attrib $-1 -1 $108 $-1 $45 0 0 0 0 1 1 1 1 1 1 1 0 1 0 0 1 0 1 @4 bbox #
vertex $109 -1 -1 $-1 $71 $110 #
straight-curve $-1 -1 -1 $-1 -23.999999999999993 270.50799999999998 -44.661848564974285 -1.224646799147353e-16 -1 1.791118768832764e-31 I I #
coedge $-1 -1 -1 $-1 $91 $46 $105 $111 forward $37 $-1 #
name_attrib-gen-attrib $-1 -1 $112 $-1 $47 0 0 0 0 1 1 1 1 1 1 1 0 1 0 0 1 0 1 @4 bbox #
vertex $113 -1 -1 $-1 $111 $114 #
straight-curve $-1 -1 -1 $-1 24.000000000000007 270.50799999999998 -44.661848564974285 -1.224646799147353e-16 -1 1.791118768832764e-31 I I #
edge $115 -1 -1 $-1 $95 -44.659323095710903 $52 44.659323095710903 $60 $116 forward @7 unknown T 23.999999999999993 270 -44.661848564974285 24.000000000000007 270 44.656797626447521 #
name_attrib-gen-attrib $-1 -1 $117 $50 $31 2 1 1 1 1 1 1 1 1 1 1 1 1 1 0 1 1 1 @3 eif #
name_attrib-gen-attrib $-1 -1 $118 $-1 $51 0 0 0 0 1 1 1 1 1 1 1 0 1 0 0 1 0 1 @4 bbox #
point $-1 -1 -1 $-1 -23.999999999999993 270 -44.661848564974285 #
name_attrib-gen-attrib $-1 -1 $119 $-1 $52 0 0 0 0 1 1 1 1 1 1 1 0 1 0 0 1 0 1 @4 bbox #
point $-1 -1 -1 $-1 24.000000000000007 270 -44.661848564974285 #
real_attrib-name_attrib-gen-attrib $-1 -1 $120 $54 $1 0 0 0 0 1 1 1 1 1 1 1 0 1 0 0 1 0 1 @8 bboxymin 270 #
integer_attrib-name_attrib-gen-attrib $-1 -1 $-1 $56 $24 2 1 1 1 1 1 1 1 1 1 1 1 1 1 0 1 1 1 @3 pid 10 #
integer_attrib-name_attrib-gen-attrib $-1 -1 $121 $57 $36 2 0 0 1 1 1 1 1 1 1 1 1 1 1 0 1 1 1 @3 fif 0 #
name_attrib-gen-attrib $-1 -1 $122 $-1 $58 0 0 0 0 1 1 1 1 1 1 1 0 1 0 0 1 0 1 @4 bbox #
loop $-1 -1 -1 $-1 $-1 $105 $58 T -24.000000000000007 270.50799999999998 -44.661848564974292 24.000000000000007 270.50799999999998 44.656797626447521 unknown #
plane-surface $-1 -1 -1 $-1 -2.8396919252074517e-15 270.50799999999998 22.327136078592069 -1.224646799147353e-16 -1 -2.3413137574546097e-31 1.224646799147353e-16 2.1913377791884242e-31 -1 forward_v I I I I #
coedge $-1 -1 -1 $-1 $60 $75 $61 $93 forward $37 $-1 #
coedge $-1 -1 -1 $-1 $62 $61 $123 $124 forward $25 $-1 #
edge $125 -1 -1 $-1 $126 0 $95 0.50799999999999912 $91 $127 forward @7 unknown T 23.999999999999993 270 44.656797626447521 23.999999999999993 270.50799999999998 44.656797626447521 #
name_attrib-gen-attrib $-1 -1 $128 $-1 $64 0 0 0 0 1 1 1 1 1 1 1 0 1 0 0 1 0 1 @4 bbox #
vertex $129 -1 -1 $-1 $93 $130 #
straight-curve $-1 -1 -1 $-1 23.999999999999993 270 44.656797626447521 1 -1.224646799147353e-16 1.224646799147353e-16 I I #
coedge $-1 -1 -1 $-1 $123 $70 $65 $98 reversed $89 $-1 #
edge $131 -1 -1 $-1 $100 0 $73 89.318646191421806 $65 $132 forward @7 unknown T -24.000000000000007 270.50799999999998 -44.661848564974285 -23.999999999999993 270.50799999999998 44.656797626447521 #
name_attrib-gen-attrib $-1 -1 $133 $-1 $66 0 0 0 0 1 1 1 1 1 1 1 0 1 0 0 1 0 1 @4 bbox #
vertex $134 -1 -1 $-1 $124 $135 #
straight-curve $-1 -1 -1 $-1 -24.000000000000007 270.50799999999998 44.656797626447521 -1.224646799147353e-16 -1 -2.0910707253651355e-31 I I #
name_attrib-gen-attrib $-1 -1 $136 $67 $43 2 1 1 1 1 1 1 1 1 1 1 1 1 1 0 1 1 1 @3 eif #
name_attrib-gen-attrib $-1 -1 $137 $-1 $68 0 0 0 0 1 1 1 1 1 1 1 0 1 0 0 1 0 1 @4 bbox #
point $-1 -1 -1 $-1 -24.000000000000007 270 44.656797626447521 #
coedge $-1 -1 -1 $-1 $70 $123 $75 $111 reversed $89 $-1 #
name_attrib-gen-attrib $-1 -1 $138 $-1 $71 0 0 0 0 1 1 1 1 1 1 1 0 1 0 0 1 0 1 @4 bbox #
straight-curve $-1 -1 -1 $-1 24.000000000000007 270.50799999999998 -44.661848564974285 -1 1.224646799147353e-16 -1.224646799147353e-16 I I #
name_attrib-gen-attrib $-1 -1 $139 $72 $45 2 1 1 1 1 1 1 1 1 1 1 1 1 1 0 1 1 1 @3 eif #
name_attrib-gen-attrib $-1 -1 $140 $-1 $73 0 0 0 0 1 1 1 1 1 1 1 0 1 0 0 1 0 1 @4 bbox #
point $-1 -1 -1 $-1 -23.999999999999993 270.50799999999998 -44.661848564974285 #
edge $141 -1 -1 $-1 $77 -44.659323095710903 $126 44.659323095710903 $75 $142 forward @7 unknown T 23.999999999999993 270.50799999999998 -44.661848564974285 24.000000000000007 270.50799999999998 44.656797626447521 #
name_attrib-gen-attrib $-1 -1 $143 $76 $47 2 1 1 1 1 1 1 1 1 1 1 1 1 1 0 1 1 1 @3 eif #
name_attrib-gen-attrib $-1 -1 $144 $-1 $77 0 0 0 0 1 1 1 1 1 1 1 0 1 0 0 1 0 1 @4 bbox #
point $-1 -1 -1 $-1 24.000000000000007 270.50799999999998 -44.661848564974285 #
name_attrib-gen-attrib $-1 -1 $145 $-1 $79 0 0 0 0 1 1 1 1 1 1 1 0 1 0 0 1 0 1 @4 bbox #
straight-curve $-1 -1 -1 $-1 24 270 -0.0025254692633789539 1.224646799147353e-16 0 -1 I I #
integer_attrib-name_attrib-gen-attrib $-1 -1 $-1 $80 $31 2 1 1 1 1 1 1 1 1 1 1 1 1 1 0 1 1 1 @3 pid 8 #
integer_attrib-name_attrib-gen-attrib $-1 -1 $-1 $81 $51 2 1 1 1 1 1 1 1 1 1 1 1 1 1 0 1 1 1 @3 pid 5 #
integer_attrib-name_attrib-gen-attrib $-1 -1 $-1 $83 $52 2 1 1 1 1 1 1 1 1 1 1 1 1 1 0 1 1 1 @3 pid 7 #
real_attrib-name_attrib-gen-attrib $-1 -1 $146 $85 $1 0 0 0 0 1 1 1 1 1 1 1 0 1 0 0 1 0 1 @8 bboxxmax 24.000000000000007 #
integer_attrib-name_attrib-gen-attrib $-1 -1 $-1 $87 $36 2 1 1 1 1 1 1 1 1 1 1 1 1 1 0 1 1 1 @3 pid 11 #
integer_attrib-name_attrib-gen-attrib $-1 -1 $147 $88 $58 2 0 0 1 1 1 1 1 1 1 1 1 1 1 0 1 1 1 @3 fif 0 #
coedge $-1 -1 -1 $-1 $105 $97 $92 $124 reversed $89 $-1 #
edge $148 -1 -1 $-1 $126 0 $100 48 $92 $149 forward @7 unknown T -24.000000000000007 270.50799999999998 44.656797626447513 23.999999999999993 270.50799999999998 44.656797626447521 #
name_attrib-gen-attrib $-1 -1 $150 $-1 $93 0 0 0 0 1 1 1 1 1 1 1 0 1 0 0 1 0 1 @4 bbox #
vertex $151 -1 -1 $-1 $111 $152 #
straight-curve $-1 -1 -1 $-1 23.999999999999993 270.50799999999998 44.656797626447521 -1.224646799147353e-16 -1 -2.0910707253651355e-31 I I #
name_attrib-gen-attrib $-1 -1 $153 $94 $64 2 1 1 1 1 1 1 1 1 1 1 1 1 1 0 1 1 1 @3 eif #
name_attrib-gen-attrib $-1 -1 $154 $-1 $95 0 0 0 0 1 1 1 1 1 1 1 0 1 0 0 1 0 1 @4 bbox #
point $-1 -1 -1 $-1 23.999999999999993 270 44.656797626447521 #
name_attrib-gen-attrib $-1 -1 $155 $-1 $98 0 0 0 0 1 1 1 1 1 1 1 0 1 0 0 1 0 1 @4 bbox #
straight-curve $-1 -1 -1 $-1 -24.000000000000007 270.50799999999998 44.656797626447521 1.224646799147353e-16 0 -1 I I #
name_attrib-gen-attrib $-1 -1 $156 $99 $66 2 1 1 1 1 1 1 1 1 1 1 1 1 1 0 1 1 1 @3 eif #
name_attrib-gen-attrib $-1 -1 $157 $-1 $100 0 0 0 0 1 1 1 1 1 1 1 0 1 0 0 1 0 1 @4 bbox #
point $-1 -1 -1 $-1 -24.000000000000007 270.50799999999998 44.656797626447521 #
integer_attrib-name_attrib-gen-attrib $-1 -1 $-1 $102 $43 2 1 1 1 1 1 1 1 1 1 1 1 1 1 0 1 1 1 @3 pid 5 #
integer_attrib-name_attrib-gen-attrib $-1 -1 $-1 $103 $68 2 1 1 1 1 1 1 1 1 1 1 1 1 1 0 1 1 1 @3 pid 13 #
name_attrib-gen-attrib $-1 -1 $158 $106 $71 2 1 1 1 1 1 1 1 1 1 1 1 1 1 0 1 1 1 @3 eif #
integer_attrib-name_attrib-gen-attrib $-1 -1 $-1 $108 $45 2 1 1 1 1 1 1 1 1 1 1 1 1 1 0 1 1 1 @3 pid 6 #
integer_attrib-name_attrib-gen-attrib $-1 -1 $-1 $109 $73 2 1 1 1 1 1 1 1 1 1 1 1 1 1 0 1 1 1 @3 pid 6 #
name_attrib-gen-attrib $-1 -1 $159 $-1 $111 0 0 0 0 1 1 1 1 1 1 1 0 1 0 0 1 0 1 @4 bbox #
straight-curve $-1 -1 -1 $-1 24 270.50799999999998 -0.0025254692633789539 -1.224646799147353e-16 0 1 I I #
integer_attrib-name_attrib-gen-attrib $-1 -1 $-1 $112 $47 2 1 1 1 1 1 1 1 1 1 1 1 1 1 0 1 1 1 @3 pid 9 #
integer_attrib-name_attrib-gen-attrib $-1 -1 $-1 $113 $77 2 1 1 1 1 1 1 1 1 1 1 1 1 1 0 1 1 1 @3 pid 8 #
name_attrib-gen-attrib $-1 -1 $160 $115 $79 2 1 1 1 1 1 1 1 1 1 1 1 1 1 0 1 1 1 @3 eif #
real_attrib-name_attrib-gen-attrib $-1 -1 $161 $120 $1 0 0 0 0 1 1 1 1 1 1 1 0 1 0 0 1 0 1 @8 bboxxmin -24.000000000000007 #
integer_attrib-name_attrib-gen-attrib $-1 -1 $-1 $122 $58 2 1 1 1 1 1 1 1 1 1 1 1 1 1 0 1 1 1 @3 pid 12 #
name_attrib-gen-attrib $-1 -1 $162 $-1 $124 0 0 0 0 1 1 1 1 1 1 1 0 1 0 0 1 0 1 @4 bbox #
straight-curve $-1 -1 -1 $-1 23.999999999999993 270.50799999999998 44.656797626447521 -1 1.224646799147353e-16 -1.224646799147353e-16 I I #
name_attrib-gen-attrib $-1 -1 $163 $125 $93 2 1 1 1 1 1 1 1 1 1 1 1 1 1 0 1 1 1 @3 eif #
name_attrib-gen-attrib $-1 -1 $164 $-1 $126 0 0 0 0 1 1 1 1 1 1 1 0 1 0 0 1 0 1 @4 bbox #
point $-1 -1 -1 $-1 23.999999999999993 270.50799999999998 44.656797626447521 #
integer_attrib-name_attrib-gen-attrib $-1 -1 $-1 $128 $64 2 1 1 1 1 1 1 1 1 1 1 1 1 1 0 1 1 1 @3 pid 20 #
integer_attrib-name_attrib-gen-attrib $-1 -1 $-1 $129 $95 2 1 1 1 1 1 1 1 1 1 1 1 1 1 0 1 1 1 @3 pid 15 #
name_attrib-gen-attrib $-1 -1 $165 $131 $98 2 1 1 1 1 1 1 1 1 1 1 1 1 1 0 1 1 1 @3 eif #
integer_attrib-name_attrib-gen-attrib $-1 -1 $-1 $133 $66 2 1 1 1 1 1 1 1 1 1 1 1 1 1 0 1 1 1 @3 pid 18 #
integer_attrib-name_attrib-gen-attrib $-1 -1 $-1 $134 $100 2 1 1 1 1 1 1 1 1 1 1 1 1 1 0 1 1 1 @3 pid 14 #
integer_attrib-name_attrib-gen-attrib $-1 -1 $-1 $138 $71 2 1 1 1 1 1 1 1 1 1 1 1 1 1 0 1 1 1 @3 pid 10 #
name_attrib-gen-attrib $-1 -1 $166 $141 $111 2 1 1 1 1 1 1 1 1 1 1 1 1 1 0 1 1 1 @3 eif #
integer_attrib-name_attrib-gen-attrib $-1 -1 $-1 $145 $79 2 1 1 1 1 1 1 1 1 1 1 1 1 1 0 1 1 1 @3 pid 23 #
integer_attrib-name_attrib-gen-attrib $-1 -1 $167 $146 $1 0 0 0 0 1 1 1 1 1 1 1 0 1 0 0 1 0 1 @6 bboxnv 8 #
name_attrib-gen-attrib $-1 -1 $168 $148 $124 2 1 1 1 1 1 1 1 1 1 1 1 1 1 0 1 1 1 @3 eif #
integer_attrib-name_attrib-gen-attrib $-1 -1 $-1 $150 $93 2 1 1 1 1 1 1 1 1 1 1 1 1 1 0 1 1 1 @3 pid 21 #
integer_attrib-name_attrib-gen-attrib $-1 -1 $-1 $151 $126 2 1 1 1 1 1 1 1 1 1 1 1 1 1 0 1 1 1 @3 pid 16 #
integer_attrib-name_attrib-gen-attrib $-1 -1 $-1 $155 $98 2 1 1 1 1 1 1 1 1 1 1 1 1 1 0 1 1 1 @3 pid 19 #
integer_attrib-name_attrib-gen-attrib $-1 -1 $-1 $159 $111 2 1 1 1 1 1 1 1 1 1 1 1 1 1 0 1 1 1 @3 pid 24 #
integer_attrib-name_attrib-gen-attrib $-1 -1 $169 $161 $1 0 0 0 0 1 1 1 1 1 1 1 0 1 0 0 1 0 1 @6 bboxne 12 #
integer_attrib-name_attrib-gen-attrib $-1 -1 $-1 $162 $124 2 1 1 1 1 1 1 1 1 1 1 1 1 1 0 1 1 1 @3 pid 22 #
integer_attrib-name_attrib-gen-attrib $-1 -1 $170 $167 $1 0 0 0 0 1 1 1 1 1 1 1 0 1 0 0 1 0 1 @6 bboxnf 6 #
integer_attrib-name_attrib-gen-attrib $-1 -1 $171 $169 $1 2 1 1 1 1 1 1 1 1 1 1 1 1 1 0 1 1 1 @17 object_visibility 0 #
integer_attrib-name_attrib-gen-attrib $-1 -1 $172 $170 $1 2 1 1 1 1 1 1 1 1 1 1 1 1 1 0 1 1 1 @3 noe 12 #
integer_attrib-name_attrib-gen-attrib $-1 -1 $-1 $171 $1 2 1 1 1 1 1 1 1 1 1 1 1 1 1 0 1 1 1 @3 nof 6 #
End-of-ACIS-data 